<?xml version="1.0" encoding="UTF-8"?>
<svg version="1.1" xmlns="http://www.w3.org/2000/svg" width="382" height="413">
<path d="M0 0 C126.06 0 252.12 0 382 0 C382 136.29 382 272.58 382 413 C255.94 413 129.88 413 0 413 C0 276.71 0 140.42 0 0 Z " fill="#F6F6F6" transform="translate(0,0)"/>
<path d="M0 0 C4.11255939 1.37085313 4.9107381 4.04774754 6.8125 7.6875 C10.58519722 14.67617492 14.73285431 21.34397752 19.0625 28 C29.44930421 44.05839966 37.96104907 58.53416633 34.421875 78.21484375 C31.7559077 86.66111287 26.34513254 93.32894307 18.81640625 97.95703125 C10.92930328 102 10.92930328 102 8 102 C7.96132812 103.59134766 7.96132812 103.59134766 7.921875 105.21484375 C7.56714662 115.94390418 6.64974682 126.59758768 5.43933105 137.26028442 C5.27178362 138.75040487 5.11021693 140.24121025 4.95471191 141.7326355 C4.73101745 143.85545813 4.4839744 145.97430585 4.23046875 148.09375 C4.02006958 149.94516602 4.02006958 149.94516602 3.80541992 151.83398438 C2.89272606 155.42168185 1.88224348 156.74015451 -1 159 C-8.14655652 162.08601304 -15.65208426 162.1036955 -23.3125 162.1875 C-24.01874512 162.20055176 -24.72499023 162.21360352 -25.45263672 162.22705078 C-29.19329868 162.23333158 -30.80707623 162.12861585 -34 160 C-33.67 159.67 -33.34 159.34 -33 159 C-34.65 158.34 -36.3 157.68 -38 157 C-34.86630511 156.06982675 -32.12099541 155.90694055 -28.859375 155.97265625 C-27.87066406 155.98490234 -26.88195312 155.99714844 -25.86328125 156.00976562 C-23.80331057 156.04465848 -21.74340496 156.08365773 -19.68359375 156.12695312 C-13.7546249 156.19231789 -8.64303735 155.9008823 -3 154 C-2.67 153.34 -2.34 152.68 -2 152 C-3.11503906 152.48855469 -4.23007813 152.97710937 -5.37890625 153.48046875 C-10.27950235 155.31239675 -14.75369232 155.41120159 -19.9375 155.3125 C-20.77990234 155.31572266 -21.62230469 155.31894531 -22.49023438 155.32226562 C-36.79890091 155.20109909 -36.79890091 155.20109909 -41 151 C-41.9907159 146.05289575 -42.47253819 141.0161501 -43 136 C-43.07138184 135.32565918 -43.14276367 134.65131836 -43.21630859 133.95654297 C-44.0618908 125.60513906 -44.0618908 125.60513906 -44 122 C-39.08480781 117.08480781 -30.33971875 117.72166153 -23.81054688 117.67773438 C-22.20276367 117.68256836 -22.20276367 117.68256836 -20.5625 117.6875 C-18.96051758 117.66333008 -18.96051758 117.66333008 -17.32617188 117.63867188 C-10.38766912 117.63443333 -4.51218282 118.59310597 2 121 C2.05807043 117.89591193 2.09361914 114.7919636 2.125 111.6875 C2.14175781 110.80642578 2.15851563 109.92535156 2.17578125 109.01757812 C2.18222656 108.17001953 2.18867187 107.32246094 2.1953125 106.44921875 C2.20578613 105.66893311 2.21625977 104.88864746 2.22705078 104.0847168 C2.12880859 101.6934152 2.12880859 101.6934152 0 99 C0.99 98.34 1.98 97.68 3 97 C-3.95887898 94.97032696 -10.78523518 94.37912446 -18 93.875 C-19.73443359 93.74544922 -19.73443359 93.74544922 -21.50390625 93.61328125 C-24.33554305 93.40266364 -27.16748566 93.19840359 -30 93 C-30 92.67 -30 92.34 -30 92 C-22.74 91.67 -15.48 91.34 -8 91 C-14.07088771 90.58087114 -14.07088771 90.58087114 -20.14550781 90.22412109 C-24.66255612 89.83129273 -26.4103273 89.67535951 -29.5 86.13671875 C-29.995 85.10160156 -30.49 84.06648438 -31 83 C-31.5775 81.824375 -32.155 80.64875 -32.75 79.4375 C-36.21872902 69.35710516 -34.12198117 58.526121 -30 49 C-25.43514688 40.09408237 -19.88312635 31.70615378 -14.41333008 23.33740234 C-10.81754485 17.80775614 -7.49294535 12.12555283 -4.18554688 6.41992188 C-1.09217882 1.09217882 -1.09217882 1.09217882 0 0 Z " fill="#0AB4F3" transform="translate(99,80)"/>
<path d="M0 0 C1.92561231 2.66574994 1.70999092 4.46783018 1.19921875 7.66015625 C-1.56499512 11.40394897 -3.81685641 12.93778736 -8.3203125 13.6640625 C-10.08264762 13.86821916 -11.84724266 14.05350336 -13.61328125 14.22265625 C-15.51117423 14.45081557 -17.40832237 14.68525322 -19.3046875 14.92578125 C-20.23941895 15.04373047 -21.17415039 15.16167969 -22.13720703 15.28320312 C-28.49979425 16.18364627 -34.64989231 17.83117818 -40.80078125 19.66015625 C-41.44869629 19.84884277 -42.09661133 20.0375293 -42.76416016 20.23193359 C-61.60520197 25.86624955 -79.37301083 35.52822669 -94.80078125 47.66015625 C-95.71214844 48.35109375 -96.62351562 49.04203125 -97.5625 49.75390625 C-135.02864888 79.07048406 -156.54693584 123.68697943 -162.36132812 170.35107422 C-164.48782449 189.49337405 -164.08087722 209.8800558 -159.80078125 228.66015625 C-159.48040524 230.22654951 -159.16009505 231.79295624 -158.83984375 233.359375 C-155.69548834 247.84566315 -150.66314087 262.65463502 -143.68237305 275.75976562 C-142.27902984 278.78486213 -142.50334457 281.38835277 -142.80078125 284.66015625 C-143.86328125 286.59765625 -143.86328125 286.59765625 -145.80078125 287.66015625 C-149.23828125 288.16015625 -149.23828125 288.16015625 -152.80078125 287.66015625 C-156.79352052 283.67530777 -158.65523618 278.8592328 -160.73828125 273.72265625 C-161.25986816 272.45675659 -161.25986816 272.45675659 -161.79199219 271.1652832 C-168.08131994 255.76460576 -173.53067509 240.19950112 -175.80078125 223.66015625 C-176.07921875 221.95859375 -176.07921875 221.95859375 -176.36328125 220.22265625 C-183.65199868 170.01149175 -171.78923864 116.7723931 -141.80078125 75.66015625 C-141.41100098 75.11633301 -141.0212207 74.57250977 -140.61962891 74.01220703 C-123.67948041 50.50731076 -102.21114234 32.40998497 -76.80078125 18.66015625 C-75.7025 18.06332031 -74.60421875 17.46648438 -73.47265625 16.8515625 C-58.78446047 9.18295796 -15.17990967 -11.29437964 0 0 Z " fill="#2DC0FC" transform="translate(180.80078125,13.33984375)"/>
<path d="M0 0 C0.73283203 0.1232666 1.46566406 0.2465332 2.22070312 0.37353516 C39.50773254 7.02430186 78.2320985 30.66305044 102 60 C102.40186523 60.48952148 102.80373047 60.97904297 103.21777344 61.48339844 C122.4855916 85.02982633 136.33617558 111.73984194 143.875 141.3125 C144.05393799 142.01431396 144.23287598 142.71612793 144.41723633 143.43920898 C147.99140372 158.60260137 149.55762249 173.63279605 149.4375 189.1875 C149.43293793 190.45435135 149.43293793 190.45435135 149.42828369 191.74679565 C149.35380581 205.80838555 148.30446735 219.28844517 145 233 C144.77505859 233.94601074 144.55011719 234.89202148 144.31835938 235.86669922 C141.98272562 245.45534441 139.21461312 254.89913407 135.875 264.1875 C135.64570801 264.84105469 135.41641602 265.49460937 135.18017578 266.16796875 C133.78658216 269.83938077 132.53547938 272.15804223 129 274 C125.375 273.875 125.375 273.875 122 273 C119.65244767 269.47867151 119.68768829 268.14354781 120 264 C120.76269531 261.15771484 120.76269531 261.15771484 121.828125 258.2109375 C122.21419922 257.11410645 122.60027344 256.01727539 122.99804688 254.88720703 C123.41119141 253.72817871 123.82433594 252.56915039 124.25 251.375 C127.12358527 243.03555071 129.79849993 234.78827151 131.5 226.125 C131.64727539 225.38556152 131.79455078 224.64612305 131.94628906 223.88427734 C140.52352552 176.64625396 130.48905297 125.53857571 103.51367188 85.81103516 C97.03113102 76.57109018 89.81843888 68.1243246 82 60 C81.37222656 59.3090625 80.74445313 58.618125 80.09765625 57.90625 C63.27137694 39.93858194 39.86783413 28.16372805 17 20 C15.90042969 19.59265625 14.80085938 19.1853125 13.66796875 18.765625 C0.5352015 14.29050117 -13.916502 12.20559096 -27.73120117 11.31982422 C-30 11 -30 11 -32.6875 9.3125 C-34.43000514 6.24237189 -34.57964612 4.47787674 -34 1 C-28.57193341 -7.96811002 -8.52357219 -1.43600197 0 0 Z " fill="#59E28B" transform="translate(231,14)"/>
<path d="M0 0 C3.5 0.5625 3.5 0.5625 6 2.1875 C7.5 4.5625 7.5 4.5625 7.3671875 7.30078125 C6.33360582 11.18835199 4.50406436 13.95876508 2.125 17.125 C1.46105225 18.03028442 1.46105225 18.03028442 0.78369141 18.95385742 C-4.01455858 25.40954708 -9.20982689 31.50863273 -14.5 37.5625 C-15.22316406 38.40941406 -15.94632812 39.25632812 -16.69140625 40.12890625 C-17.35011719 40.89074219 -18.00882812 41.65257812 -18.6875 42.4375 C-19.51314453 43.39269531 -19.51314453 43.39269531 -20.35546875 44.3671875 C-37.59400703 62.01392432 -59.05140575 74.76654244 -81.5 84.5625 C-82.57378906 85.03429687 -83.64757812 85.50609375 -84.75390625 85.9921875 C-127.39335478 103.52718421 -176.39884955 101.10988248 -218.5 83.5625 C-237.56092278 75.38307469 -254.90327408 65.32154522 -270.5 51.5625 C-270.99725586 51.12550781 -271.49451172 50.68851562 -272.00683594 50.23828125 C-278.26915056 44.70792548 -284.23648377 39.07053525 -289.5 32.5625 C-290.12382568 31.83111816 -290.12382568 31.83111816 -290.76025391 31.08496094 C-292.17340318 29.42706517 -293.55689074 27.74754882 -294.9375 26.0625 C-295.38754395 25.54059082 -295.83758789 25.01868164 -296.30126953 24.48095703 C-299.87813039 20.00119926 -300.07027322 17.0520998 -299.5 11.5625 C-297.875 9.5 -297.875 9.5 -295.5 8.5625 C-291.29528007 8.65606818 -289.81533265 9.25703552 -286.75390625 12.22265625 C-285.84160962 13.34461111 -284.94501884 14.47947464 -284.0625 15.625 C-283.0980198 16.8193041 -282.13317697 18.01331544 -281.16796875 19.20703125 C-280.70825684 19.78662598 -280.24854492 20.3662207 -279.77490234 20.96337891 C-277.13782413 24.27108904 -274.34677056 27.43496996 -271.5 30.5625 C-270.89671875 31.23152344 -270.2934375 31.90054687 -269.671875 32.58984375 C-242.47631347 61.29050315 -199.1168983 81.4645721 -159.5 82.5625 C-158.73913086 82.58828125 -157.97826172 82.6140625 -157.19433594 82.640625 C-138.12600038 83.21867231 -119.74506192 81.29444171 -101.5 75.5625 C-100.83049316 75.35254395 -100.16098633 75.14258789 -99.47119141 74.92626953 C-89.24692334 71.66501933 -79.71898829 67.51514474 -70.24707031 62.48242188 C-68.71677275 61.67664194 -67.16825968 60.90565247 -65.6171875 60.140625 C-43.02250945 48.67466897 -24.43835226 29.31273709 -9.91015625 8.91015625 C-3.96191526 0.63673638 -3.96191526 0.63673638 0 0 Z " fill="#7F5FED" transform="translate(341.5,306.4375)"/>
<path d="M0 0 C0.94746094 -0.020625 1.89492188 -0.04125 2.87109375 -0.0625 C17.52186374 -0.14266837 29.48369634 5.884405 40.00390625 15.8828125 C40.78636719 16.66398437 41.56882812 17.44515625 42.375 18.25 C43.16777344 19.03117187 43.96054687 19.81234375 44.77734375 20.6171875 C50.23001041 26.30942651 50.23001041 26.30942651 50.83203125 30.21484375 C49.97002366 35.93945824 45.35106862 39.32256831 41.375 43.25 C40.65570313 43.97960937 39.93640625 44.70921875 39.1953125 45.4609375 C27.93440471 56.22686033 13.9665242 60.7625943 -1.35498047 60.6015625 C-18.33846043 60.05578675 -31.02119858 51.98717845 -42.625 40.25 C-43.3984375 39.486875 -44.171875 38.72375 -44.96875 37.9375 C-48.59046053 34.14332707 -48.59046053 34.14332707 -49.625 32.25 C-49.39276172 25.68399038 -43.94925549 21.65299762 -39.625 17.25 C-38.48998047 16.06083984 -38.48998047 16.06083984 -37.33203125 14.84765625 C-26.82290837 4.54977202 -14.48383559 0.07693937 0 0 Z " fill="#EFF4F2" transform="translate(288.625,144.75)"/>
<path d="M0 0 C4.32390031 0.44730003 4.85368361 1.18933146 7.625 4.375 C8.92318175 6.14695117 10.19284308 7.94005084 11.4375 9.75 C17.41357273 18.04580522 23.89401525 23.13133842 33.625 26.375 C42.56089483 27.5106033 50.80510581 24.63414097 58.125 19.5625 C62.93885587 15.64585025 66.28204236 10.57512752 69.55664062 5.35424805 C70.81223914 3.46919319 71.93293051 1.88268639 73.625 0.375 C77.18425967 -0.11154443 79.38715962 -0.30381569 82.5625 1.4375 C84.22480429 4.46876077 83.87447586 6.96787251 83.625 10.375 C79.33506269 19.45885007 70.71946336 30.30411148 62.3059082 35.92407227 C57.61094487 38.97515394 57.61094487 38.97515394 54.80737305 43.63256836 C54.50671199 46.37249389 54.53672653 48.93495343 54.6875 51.6875 C54.71263672 52.69989746 54.73777344 53.71229492 54.76367188 54.75537109 C55.26260346 65.95305906 57.35009654 76.99109894 59.48852539 87.97387695 C59.62658096 88.68517258 59.76463654 89.3964682 59.90687561 90.12931824 C60.28834204 92.07226711 60.68090786 94.01302741 61.07421875 95.95361328 C61.8279796 100.6358848 62.36203959 104.01884715 60.0625 108.25 C57.625 110.375 57.625 110.375 54.0625 110.875 C50.625 110.375 50.625 110.375 49.03344727 109.35205078 C46.85623516 106.2958775 46.37276879 102.85688362 45.65234375 99.2421875 C45.48376358 98.4497464 45.31518341 97.6573053 45.14149475 96.84085083 C44.60448478 94.31267345 44.08216896 91.7817945 43.5625 89.25 C43.03830392 86.71130758 42.51082876 84.17352316 41.97279358 81.63772583 C41.6383096 80.06026848 41.31194946 78.48106321 40.99436951 76.90011597 C40.60185435 75.04373161 40.12149577 73.20631728 39.625 71.375 C38.635 70.88 38.635 70.88 37.625 70.375 C37.50898438 71.59703125 37.39296875 72.8190625 37.2734375 74.078125 C36.59499866 80.15788923 35.43687368 86.12704907 34.25 92.125 C34.04117188 93.23488281 33.83234375 94.34476562 33.6171875 95.48828125 C33.40578125 96.55949219 33.194375 97.63070312 32.9765625 98.734375 C32.78916504 99.69827148 32.60176758 100.66216797 32.40869141 101.65527344 C31.55173892 104.62924562 30.39165576 106.84064691 28.625 109.375 C25.81584526 110.77957737 23.73689466 110.62395157 20.625 110.375 C18.25 109.4375 18.25 109.4375 16.625 107.375 C15.96403921 99.25590058 17.72862954 91.45342828 19.19314575 83.50747681 C24.05159612 62.40491379 24.05159612 62.40491379 22.625 41.375 C19.55073705 37.21665485 16.04701739 34.95501015 11.625 32.375 C4.42484467 26.4722984 -2.88038173 17.08321092 -6.375 8.375 C-5.96001726 3.18771572 -5.5976827 0.62196474 0 0 Z " fill="#7B59EC" transform="translate(152.375,264.625)"/>
<path d="M0 0 C3.5 0.4375 3.5 0.4375 5.19668579 1.46084595 C7.25708576 4.58572399 6.89634276 7.88262066 6.85302734 11.50146484 C6.85518753 12.32292496 6.85734772 13.14438507 6.85957336 13.99073792 C6.86266199 15.77499816 6.85904958 17.55927962 6.84955978 19.3435173 C6.83584162 22.16818065 6.84224689 24.99213981 6.85440063 27.81680298 C6.88539198 35.84764176 6.88048711 43.87831823 6.86035156 51.90917969 C6.849435 56.82113995 6.86262341 61.73257188 6.89024734 66.64445877 C6.89568948 68.51593318 6.89161996 70.3874604 6.87784958 72.25889206 C6.85880361 74.87809578 6.87019839 77.49557216 6.88818359 80.11474609 C6.87484482 80.88686935 6.86150604 81.65899261 6.84776306 82.45451355 C6.90971027 86.51423444 7.2978188 88.20106575 9.97573853 91.33267212 C10.80874481 92.02726532 11.6417511 92.72185852 12.5 93.4375 C13.85439668 96.14629335 13.56501451 98.44683268 13.5 101.4375 C14.21285156 101.70071045 14.92570312 101.9639209 15.66015625 102.23510742 C18.62294085 103.48955328 21.20490746 104.97904405 23.9375 106.67578125 C25.51241211 107.64946655 25.51241211 107.64946655 27.11914062 108.64282227 C28.23482422 109.33819092 29.35050781 110.03355957 30.5 110.75 C31.66320665 111.47160303 32.82662047 112.19287222 33.99023438 112.91381836 C36.35397873 114.3789112 38.71642689 115.84606443 41.078125 117.31445312 C44.22235295 119.26767226 47.37541742 121.20620089 50.53125 123.140625 C51.45808594 123.70998779 52.38492188 124.27935059 53.33984375 124.8659668 C55.04961194 125.91621262 56.76046136 126.96470136 58.47265625 128.01098633 C60.8299868 129.46417187 63.16539527 130.94813354 65.5 132.4375 C66.428125 133.0032373 67.35625 133.56897461 68.3125 134.15185547 C69.2303125 134.7398291 70.148125 135.32780273 71.09375 135.93359375 C71.93615234 136.46009521 72.77855469 136.98659668 73.64648438 137.52905273 C75.5 139.4375 75.5 139.4375 75.84570312 142.53930664 C75.5 145.4375 75.5 145.4375 74.375 147.3125 C71.63340483 148.9574571 69.66284355 148.69267989 66.5 148.4375 C63.76538086 147.17504883 63.76538086 147.17504883 60.96484375 145.39453125 C59.91820557 144.7389624 58.87156738 144.08339355 57.79321289 143.40795898 C56.68582764 142.69583252 55.57844238 141.98370605 54.4375 141.25 C53.27875004 140.51828605 52.11915279 139.78791228 50.95874023 139.05883789 C48.60232116 137.57630068 46.25024496 136.08722812 43.90136719 134.59277344 C38.98594713 131.47033418 34.02248826 128.42593783 29.0625 125.375 C19.96144862 119.77218658 19.96144862 119.77218658 15.8984375 117.04296875 C14.92132813 116.38941406 13.94421875 115.73585938 12.9375 115.0625 C12.15246094 114.51851563 11.36742187 113.97453125 10.55859375 113.4140625 C8.00889473 112.20452786 7.11197442 112.52876139 4.5 113.4375 C-1.63539559 113.93228997 -4.60373375 113.53669965 -9.5 109.4375 C-12.7696925 106.39330353 -13.27174016 102.99742731 -13.640625 98.69140625 C-13.36103242 94.21015844 -10.53104534 91.46854534 -7.5 88.4375 C-7.29819841 85.77904096 -7.21996341 83.22292285 -7.22875977 80.56298828 C-7.22353302 79.74982147 -7.21830627 78.93665466 -7.21292114 78.09884644 C-7.20266542 76.32986512 -7.19689801 74.56085349 -7.19503975 72.79184341 C-7.19138669 69.99282902 -7.17468922 67.19417235 -7.15428162 64.39523315 C-7.09876838 56.43624518 -7.06817794 48.47720385 -7.04370117 40.51806641 C-7.02783469 35.65272325 -6.99762312 30.78763284 -6.95893669 25.9224205 C-6.94727618 24.06689002 -6.94135625 22.21131434 -6.94125557 20.35574722 C-6.94106372 17.76049648 -6.92281219 15.16594332 -6.90063477 12.57080078 C-6.90521194 11.80286194 -6.90978912 11.0349231 -6.914505 10.24371338 C-6.87149983 7.08157581 -6.67914189 4.77773755 -5.19371033 1.95651245 C-3.5 0.4375 -3.5 0.4375 0 0 Z " fill="#243652" transform="translate(191.5,104.5625)"/>
<path d="M0 0 C7.34918342 -0.43230491 13.90215087 1.18225815 21 3 C21 3.66 21 4.32 21 5 C21.66 5 22.32 5 23 5 C23.495 8.96 23.495 8.96 24 13 C23.34 13 22.68 13 22 13 C21.96132812 14.59134766 21.96132812 14.59134766 21.921875 16.21484375 C21.56714662 26.94390418 20.64974682 37.59758768 19.43933105 48.26028442 C19.27178362 49.75040487 19.11021693 51.24121025 18.95471191 52.7326355 C18.73101745 54.85545813 18.4839744 56.97430585 18.23046875 59.09375 C18.09020264 60.32802734 17.94993652 61.56230469 17.80541992 62.83398438 C16.89272606 66.42168185 15.88224348 67.74015451 13 70 C5.85344348 73.08601304 -1.65208426 73.1036955 -9.3125 73.1875 C-10.01874512 73.20055176 -10.72499023 73.21360352 -11.45263672 73.22705078 C-15.19329868 73.23333158 -16.80707623 73.12861585 -20 71 C-19.505 70.505 -19.505 70.505 -19 70 C-20.65 69.34 -22.3 68.68 -24 68 C-20.86630511 67.06982675 -18.12099541 66.90694055 -14.859375 66.97265625 C-13.87066406 66.98490234 -12.88195312 66.99714844 -11.86328125 67.00976562 C-9.80331057 67.04465848 -7.74340496 67.08365773 -5.68359375 67.12695312 C0.2453751 67.19231789 5.35696265 66.9008823 11 65 C11.495 64.01 11.495 64.01 12 63 C10.88496094 63.48855469 9.76992187 63.97710937 8.62109375 64.48046875 C3.72049765 66.31239675 -0.75369232 66.41120159 -5.9375 66.3125 C-7.20110352 66.31733398 -7.20110352 66.31733398 -8.49023438 66.32226562 C-22.79890091 66.20109909 -22.79890091 66.20109909 -27 62 C-27.9907159 57.05289575 -28.47253819 52.0161501 -29 47 C-29.07138184 46.32565918 -29.14276367 45.65131836 -29.21630859 44.95654297 C-30.0618908 36.60513906 -30.0618908 36.60513906 -30 33 C-25.08480781 28.08480781 -16.33971875 28.72166153 -9.81054688 28.67773438 C-8.20276367 28.68256836 -8.20276367 28.68256836 -6.5625 28.6875 C-4.96051758 28.66333008 -4.96051758 28.66333008 -3.32617188 28.63867188 C3.61233088 28.63443333 9.48781718 29.59310597 16 32 C16.05807043 28.89591193 16.09361914 25.7919636 16.125 22.6875 C16.14175781 21.80642578 16.15851563 20.92535156 16.17578125 20.01757812 C16.18222656 19.17001953 16.18867187 18.32246094 16.1953125 17.44921875 C16.20578613 16.66893311 16.21625977 15.88864746 16.22705078 15.0847168 C16.12880859 12.6934152 16.12880859 12.6934152 14 10 C14.99 9.34 15.98 8.68 17 8 C10.04112102 5.97032696 3.21476482 5.37912446 -4 4.875 C-5.15628906 4.78863281 -6.31257813 4.70226562 -7.50390625 4.61328125 C-10.33554305 4.40266364 -13.16748566 4.19840359 -16 4 C-16 3.67 -16 3.34 -16 3 C-8.74 2.67 -1.48 2.34 6 2 C4.02 1.67 2.04 1.34 0 1 C0 0.67 0 0.34 0 0 Z " fill="#0D97F9" transform="translate(85,169)"/>
<path d="M0 0 C-0.33 0.66 -0.66 1.32 -1 2 C-3.5625 2.625 -3.5625 2.625 -6 3 C-4.53626953 3.16435547 -4.53626953 3.16435547 -3.04296875 3.33203125 C-1.13451172 3.56986328 -1.13451172 3.56986328 0.8125 3.8125 C2.07707031 3.96332031 3.34164062 4.11414063 4.64453125 4.26953125 C7.91525811 4.98155211 9.058842 5.36608673 11 8 C10.01 8.66 9.02 9.32 8 10 C8.99 10.66 9.98 11.32 11 12 C10.67 12.33 10.34 12.66 10 13 C10 15.14455655 10.00371382 17.28921399 10.03125 19.43359375 C9.98374782 23.33471027 9.49123641 27.13151324 9 31 C8.42386963 30.85852539 7.84773926 30.71705078 7.25415039 30.57128906 C0.26006865 28.997223 -6.41078589 28.69820726 -13.5625 28.75 C-14.63435547 28.74226563 -15.70621094 28.73453125 -16.81054688 28.7265625 C-23.16939039 28.7421193 -28.88250737 29.20705066 -35 31 C-36.24606151 33.49212302 -35.97187782 34.78351532 -35.6953125 37.54296875 C-35.60636719 38.45240234 -35.51742187 39.36183594 -35.42578125 40.29882812 C-35.32652344 41.25208984 -35.22726563 42.20535156 -35.125 43.1875 C-35.03347656 44.12142578 -34.94195312 45.05535156 -34.84765625 46.01757812 C-34.58155514 48.68046322 -34.29635328 51.34032635 -34 54 C-33.92257568 54.72219727 -33.84515137 55.44439453 -33.76538086 56.18847656 C-33.49431701 59.7518887 -33.49431701 59.7518887 -31.3125 62.375 C-25.24804077 64.01404304 -19.36289861 64.1828656 -13.125 64.1875 C-12.26519531 64.19974609 -11.40539062 64.21199219 -10.51953125 64.22460938 C-5.00187091 64.23716854 -0.29690433 63.55465985 5 62 C4.67 62.99 4.34 63.98 4 65 C-2.89123529 67.50138589 -9.74577095 67.23302403 -17 67.125 C-18.15628906 67.11597656 -19.31257813 67.10695313 -20.50390625 67.09765625 C-23.33615647 67.07424922 -26.16796619 67.04145995 -29 67 C-27.68 67.66 -26.36 68.32 -25 69 C-25.33 69.33 -25.66 69.66 -26 70 C-22.99841847 71.50079076 -19.91565297 71.19129282 -16.625 71.1875 C-15.91053711 71.18669434 -15.19607422 71.18588867 -14.45996094 71.18505859 C-1.43677821 71.13837528 -1.43677821 71.13837528 9.75 65.375 C10.36875 64.694375 10.36875 64.694375 11 64 C11.33 64.66 11.66 65.32 12 66 C12.66 66 13.32 66 14 66 C13.67 67.65 13.34 69.3 13 71 C10.03 71.99 10.03 71.99 7 73 C7 73.66 7 74.32 7 75 C-27.26235102 75.57081964 -27.26235102 75.57081964 -36.390625 67.55859375 C-38.89501084 65.13322979 -39.17783627 64.38378358 -39.55664062 60.86669922 C-39.70184143 59.54930252 -39.70184143 59.54930252 -39.84997559 58.20529175 C-39.95104614 57.24809235 -40.0521167 56.29089294 -40.15625 55.3046875 C-40.31704041 53.83347946 -40.31704041 53.83347946 -40.4810791 52.33255005 C-40.82484166 49.18046517 -41.16264808 46.02777686 -41.5 42.875 C-41.83844571 39.74377541 -42.1781308 36.61269025 -42.5189209 33.48171997 C-42.73090083 31.53078362 -42.94133991 29.57967905 -43.15002441 27.62838745 C-43.67796037 22.73531314 -44.27925554 17.86830484 -45 13 C-45.29118044 10.15502393 -45.24164285 7.8997142 -45 5 C-34.7471956 -4.73899643 -12.77997602 -2.18581659 0 0 Z " fill="#66A3D6" transform="translate(92,170)"/>
<path d="M0 0 C0.94746094 -0.020625 1.89492188 -0.04125 2.87109375 -0.0625 C17.52186374 -0.14266837 29.48369634 5.884405 40.00390625 15.8828125 C40.78636719 16.66398437 41.56882812 17.44515625 42.375 18.25 C43.16777344 19.03117187 43.96054687 19.81234375 44.77734375 20.6171875 C50.23001041 26.30942651 50.23001041 26.30942651 50.83203125 30.21484375 C49.97002366 35.93945824 45.35106862 39.32256831 41.375 43.25 C40.65570313 43.97960937 39.93640625 44.70921875 39.1953125 45.4609375 C27.93440471 56.22686033 13.9665242 60.7625943 -1.35498047 60.6015625 C-18.33846043 60.05578675 -31.02119858 51.98717845 -42.625 40.25 C-43.3984375 39.486875 -44.171875 38.72375 -44.96875 37.9375 C-48.59046053 34.14332707 -48.59046053 34.14332707 -49.625 32.25 C-49.39276172 25.68399038 -43.94925549 21.65299762 -39.625 17.25 C-38.48998047 16.06083984 -38.48998047 16.06083984 -37.33203125 14.84765625 C-26.82290837 4.54977202 -14.48383559 0.07693937 0 0 Z M-34.25 20.8125 C-34.75917969 21.27140625 -35.26835937 21.7303125 -35.79296875 22.203125 C-38.71200986 24.97899788 -40.43967841 27.3942186 -41.625 31.25 C-33.05715468 41.80424522 -22.19185045 50.29500041 -8.625 53.25 C7.04213868 54.76697997 19.70847472 51.91047364 32.375 42.25 C32.93832031 41.8271875 33.50164062 41.404375 34.08203125 40.96875 C37.71875725 38.09619681 40.51826014 34.86293571 43.375 31.25 C38.46381759 20.6012343 28.20550822 13.36832617 17.5859375 9.02734375 C-0.93454288 2.51572609 -19.88263526 7.83664758 -34.25 20.8125 Z " fill="#22C179" transform="translate(288.625,144.75)"/>
<path d="M0 0 C4.73634562 2.14306133 7.58963953 5.08174039 10.5546875 9.3046875 C12.60097537 15.4435511 12.66040715 22.80485515 9.9296875 28.7421875 C7.04125415 33.66891248 2.82801802 37.10105121 -2.4453125 39.3046875 C-9.03308275 40.27648591 -14.29680915 39.75011207 -19.7265625 35.7890625 C-24.5218981 31.6476363 -27.37532953 27.72458535 -28.4453125 21.3046875 C-28.72838417 14.65250327 -27.46763741 10.07206662 -23.09375 5 C-16.60293207 -1.67539095 -8.91664914 -2.53540503 0 0 Z " fill="#20C37F" transform="translate(297.4453125,155.6953125)"/>
<path d="M0 0 C0.94746094 -0.020625 1.89492188 -0.04125 2.87109375 -0.0625 C12.79118734 -0.11678232 20.70884121 2.59595176 29.375 7.25 C28.055 9.23 26.735 11.21 25.375 13.25 C24.44880859 12.85167969 24.44880859 12.85167969 23.50390625 12.4453125 C8.8458146 6.33219665 -3.66084958 5.59642159 -18.66796875 11.43359375 C-26.74549412 15.12229551 -36.06592293 20.74108858 -39.9296875 29.05859375 C-40.15914062 29.78175781 -40.38859375 30.50492188 -40.625 31.25 C-35.31070186 37.42252553 -35.31070186 37.42252553 -29.625 43.25 C-31.275 44.24 -32.925 45.23 -34.625 46.25 C-35.016875 45.816875 -35.40875 45.38375 -35.8125 44.9375 C-37.57031764 43.15371332 -37.57031764 43.15371332 -39.875 42.0625 C-43.77265857 39.49358867 -47.23967831 36.2946759 -49.625 32.25 C-49.46931603 25.71127309 -43.91802945 21.62120298 -39.625 17.25 C-38.48998047 16.06083984 -38.48998047 16.06083984 -37.33203125 14.84765625 C-26.82290837 4.54977202 -14.48383559 0.07693937 0 0 Z " fill="#2CCC83" transform="translate(288.625,144.75)"/>
<path d="M0 0 C0.99128906 0.16242188 1.98257813 0.32484375 3.00390625 0.4921875 C9.2377837 1.26850755 15.50975828 1.14895257 21.78100586 1.13037109 C23.92894579 1.12502131 26.07667587 1.13033559 28.22460938 1.13671875 C35.22041281 1.13975737 42.06576099 0.97621689 49 0 C49.09706112 6.11485027 48.77040851 11.93303301 48 18 C47.42241943 17.85852539 46.84483887 17.71705078 46.24975586 17.57128906 C39.29657707 16.00859182 32.67225191 15.69807241 25.5625 15.75 C23.97985352 15.73839844 23.97985352 15.73839844 22.36523438 15.7265625 C15.37540789 15.74376823 8.82753433 16.51010932 2 18 C1.66191314 15.93827387 1.32972639 13.8755797 1 11.8125 C0.814375 10.66394531 0.62875 9.51539063 0.4375 8.33203125 C0.06510523 5.49584607 -0.08596021 2.85280436 0 0 Z " fill="#EDF4F9" transform="translate(53,183)"/>
<path d="M0 0 C3.95766929 1.94384543 6.32814316 4.96655167 8 9 C8.73285105 13.68683808 8.44402628 17.14366361 6.25 21.375 C3.54855714 24.52668334 1.60439604 26.68305193 -2.55078125 27.50390625 C-7.67858643 27.61269985 -11.10331519 27.53052606 -15.125 24.125 C-18.47100351 20.81101566 -19.22344061 18.51531991 -19.4375 13.8125 C-19.41655993 8.5007023 -18.20033382 5.97038536 -14.5078125 2.2421875 C-10.36987134 -1.16678993 -5.08674665 -0.64570832 0 0 Z " fill="#8A73F5" transform="translate(197,259)"/>
<path d="M0 0 C7.34918342 -0.43230491 13.90215087 1.18225815 21 3 C21 3.66 21 4.32 21 5 C21.66 5 22.32 5 23 5 C23.495 8.96 23.495 8.96 24 13 C23.34 13 22.68 13 22 13 C21.96132812 14.59134766 21.96132812 14.59134766 21.921875 16.21484375 C21.56714662 26.94390418 20.64974682 37.59758768 19.43933105 48.26028442 C19.27178362 49.75040487 19.11021693 51.24121025 18.95471191 52.7326355 C18.73101745 54.85545813 18.4839744 56.97430585 18.23046875 59.09375 C18.09020264 60.32802734 17.94993652 61.56230469 17.80541992 62.83398438 C16.89272606 66.42168185 15.88224348 67.74015451 13 70 C5.85344348 73.08601304 -1.65208426 73.1036955 -9.3125 73.1875 C-10.01874512 73.20055176 -10.72499023 73.21360352 -11.45263672 73.22705078 C-15.19329868 73.23333158 -16.80707623 73.12861585 -20 71 C-19.505 70.505 -19.505 70.505 -19 70 C-20.65 69.34 -22.3 68.68 -24 68 C-20.86630511 67.06982675 -18.12099541 66.90694055 -14.859375 66.97265625 C-13.87066406 66.98490234 -12.88195312 66.99714844 -11.86328125 67.00976562 C-9.80331057 67.04465848 -7.74340496 67.08365773 -5.68359375 67.12695312 C0.2453751 67.19231789 5.35696265 66.9008823 11 65 C12.64442509 61.71114982 12.61488387 58.02707889 12.97265625 54.40625 C13.06002548 53.54495483 13.14739471 52.68365967 13.2374115 51.79626465 C13.42173699 49.96724028 13.60401606 48.13800871 13.78442383 46.30859375 C14.05870237 43.53835637 14.34236887 40.76919522 14.62695312 38 C14.80526289 36.21880751 14.98301423 34.43755901 15.16015625 32.65625 C15.24451431 31.83918579 15.32887238 31.02212158 15.41578674 30.18029785 C16.93391909 19.63441788 16.93391909 19.63441788 14 10 C14.99 9.34 15.98 8.68 17 8 C10.04112102 5.97032696 3.21476482 5.37912446 -4 4.875 C-5.15628906 4.78863281 -6.31257813 4.70226562 -7.50390625 4.61328125 C-10.33554305 4.40266364 -13.16748566 4.19840359 -16 4 C-16 3.67 -16 3.34 -16 3 C-8.74 2.67 -1.48 2.34 6 2 C3.03 1.505 3.03 1.505 0 1 C0 0.67 0 0.34 0 0 Z " fill="#5D9BD1" transform="translate(85,169)"/>
<path d="M0 0 C2.26274788 0.35355436 3.95088852 0.97544426 6 2 C10.93139767 10.39831967 12.58162989 19.37932715 11 29 C8.94881974 32.68605331 7.51695858 34.65536095 4 37 C0.12661246 37.42255137 -2.11598609 37.56667558 -5.4375 35.4375 C-7.65350452 31.98053295 -7.53353975 30.06824059 -7 26 C-6.38942238 24.65015799 -5.73989847 23.31757724 -5.0625 22 C-2.38024673 16.56961356 -2.42781498 11.09181408 -2.2734375 5.16015625 C-2 2 -2 2 0 0 Z " fill="#32DAFD" transform="translate(113,123)"/>
<path d="M0 0 C0.33872513 1.41538717 0.67074624 2.83237963 1 4.25 C1.185625 5.03890625 1.37125 5.8278125 1.5625 6.640625 C2 9 2 9 2 13 C-0.97 12.505 -0.97 12.505 -4 12 C-4.45639918 23.63817901 -4.68177114 32.97734329 2 43 C2.66 42.34 3.32 41.68 4 41 C6.125 41.375 6.125 41.375 8 42 C8.02688151 43.64574566 8.04634123 45.29161413 8.0625 46.9375 C8.07410156 47.85402344 8.08570313 48.77054687 8.09765625 49.71484375 C8 52 8 52 7 53 C4.69140625 53.33984375 4.69140625 53.33984375 2 53 C-4.59567595 47.11670618 -8.25699418 39.22901745 -11 31 C-11.12185361 28.58559827 -11.17546093 26.16744474 -11.1875 23.75 C-11.20167969 22.46609375 -11.21585938 21.1821875 -11.23046875 19.859375 C-10.9911447 15.85171124 -10.24191146 12.789548 -9 9 C-9.66 9 -10.32 9 -11 9 C-11 7.68 -11 6.36 -11 5 C-9.35546875 3.515625 -9.35546875 3.515625 -7.1875 2.25 C-6.47980469 1.82203125 -5.77210938 1.3940625 -5.04296875 0.953125 C-3 0 -3 0 0 0 Z " fill="#8C6DF4" transform="translate(140,293)"/>
<path d="M0 0 C3.15330554 0.60694155 5.18888867 1.6416665 7.75 3.5625 C8.67039063 4.24505859 8.67039063 4.24505859 9.609375 4.94140625 C10.06828125 5.29074219 10.5271875 5.64007813 11 6 C10.67 6.99 10.34 7.98 10 9 C9.34 9 8.68 9 8 9 C8.495 9.845625 8.99 10.69125 9.5 11.5625 C12.87588187 19.58021945 12.04754151 29.34359079 9 37.3125 C6.26690698 43.03491351 2.85670119 48.84236944 -2 53 C-4.6875 53.328125 -4.6875 53.328125 -7 53 C-8 52 -8 52 -8.09765625 49.71484375 C-8.08605469 48.79832031 -8.07445312 47.88179688 -8.0625 46.9375 C-8.05347656 46.01839844 -8.04445312 45.09929687 -8.03515625 44.15234375 C-8.02355469 43.44207031 -8.01195312 42.73179687 -8 42 C-6.125 41.375 -6.125 41.375 -4 41 C-3.34 41.66 -2.68 42.32 -2 43 C-1.18247697 41.41925436 -0.37118003 39.83528777 0.4375 38.25 C0.88996094 37.36828125 1.34242188 36.4865625 1.80859375 35.578125 C3.79568189 31.27819656 4.15790405 27.73535256 4.1875 23 C4.20167969 21.96875 4.21585938 20.9375 4.23046875 19.875 C4.00276947 17.03454797 3.46504061 15.40892052 2 13 C0.68 13 -0.64 13 -2 13 C-2.19294408 8.17639811 -1.75747614 4.50353262 0 0 Z " fill="#8261F0" transform="translate(243,293)"/>
<path d="M0 0 C0.33 0 0.66 0 1 0 C1.08302368 0.89924194 1.08302368 0.89924194 1.16772461 1.81665039 C1.42253147 4.56543572 1.67999616 7.31396606 1.9375 10.0625 C2.02451172 11.00544922 2.11152344 11.94839844 2.20117188 12.91992188 C2.87503902 20.49022617 2.87503902 20.49022617 4 28 C9.07274869 32.13335079 17.65428564 31.18287837 23.875 31.1875 C25.16470703 31.20586914 25.16470703 31.20586914 26.48046875 31.22460938 C31.99812909 31.23716854 36.70309567 30.55465985 42 29 C41.505 30.485 41.505 30.485 41 32 C34.10876471 34.50138589 27.25422905 34.23302403 20 34.125 C18.84371094 34.11597656 17.68742187 34.10695312 16.49609375 34.09765625 C13.66384353 34.07424922 10.83203381 34.04145995 8 34 C9.32 34.66 10.64 35.32 12 36 C11.505 36.495 11.505 36.495 11 37 C14.00158153 38.50079076 17.08434703 38.19129282 20.375 38.1875 C21.08946289 38.18669434 21.80392578 38.18588867 22.54003906 38.18505859 C35.56322179 38.13837528 35.56322179 38.13837528 46.75 32.375 C47.36875 31.694375 47.36875 31.694375 48 31 C48.495 31.99 48.495 31.99 49 33 C49.66 33 50.32 33 51 33 C50.67 34.65 50.34 36.3 50 38 C48.02 38.66 46.04 39.32 44 40 C44 40.66 44 41.32 44 42 C9.73764898 42.57081964 9.73764898 42.57081964 0.609375 34.55859375 C-3.82839226 30.26085313 -2.9527837 23.56738615 -3.0625 17.6015625 C-3.0625 14.73364075 -3.04503992 11.86754155 -3 9 C-2.34 8.67 -1.68 8.34 -1 8 C-0.53476937 6.10466658 -0.53476937 6.10466658 -0.375 3.9375 C-0.25125 2.638125 -0.1275 1.33875 0 0 Z " fill="#5396D1" transform="translate(55,203)"/>
<path d="M0 0 C1.61455078 -0.02416992 1.61455078 -0.02416992 3.26171875 -0.04882812 C9.89486554 -0.0528678 15.37282626 0.72723177 21.5 3.3125 C21.17 4.3025 20.84 5.2925 20.5 6.3125 C8.65612741 11.43360505 -7.25158444 10.61762801 -19.5 7.3125 C-21.86328125 5.73828125 -21.86328125 5.73828125 -23.5 4.3125 C-18.00420794 -1.18329206 -7.24133869 -0.02168065 0 0 Z " fill="#39C9FD" transform="translate(78.5,197.6875)"/>
<path d="M0 0 C1.66796875 1.5456543 1.66796875 1.5456543 3 3 C-4.56829763 6.05147319 -11.13852003 6.42578883 -19.25 6.3125 C-20.95736328 6.31733398 -20.95736328 6.31733398 -22.69921875 6.32226562 C-30.62103248 6.27281049 -38.20826759 5.40795992 -46 4 C-46.33 3.01 -46.66 2.02 -47 1 C-32.18815398 -3.059364 -14.98478858 -4.07290038 0 0 Z " fill="#EEF4F9" transform="translate(100,175)"/>
<path d="M0 0 C4.55555556 0.55555556 4.55555556 0.55555556 6 2 C6.25256877 5.97275815 6.18522451 9.95766175 6.1875 13.9375 C6.19974609 15.06091797 6.21199219 16.18433594 6.22460938 17.34179688 C6.22750977 18.94958008 6.22750977 18.94958008 6.23046875 20.58984375 C6.23457764 21.57847412 6.23868652 22.56710449 6.24291992 23.58569336 C6 26 6 26 4 28 C-0.55555556 27.44444444 -0.55555556 27.44444444 -2 26 C-2.25256877 22.02724185 -2.18522451 18.04233825 -2.1875 14.0625 C-2.19974609 12.93908203 -2.21199219 11.81566406 -2.22460938 10.65820312 C-2.22654297 9.58634766 -2.22847656 8.51449219 -2.23046875 7.41015625 C-2.23457764 6.42152588 -2.23868652 5.43289551 -2.24291992 4.41430664 C-2 2 -2 2 0 0 Z " fill="#58E887" transform="translate(287,103)"/>
<path d="M0 0 C0.33 0 0.66 0 1 0 C1.495 2.475 1.495 2.475 2 5 C2.66 4.67 3.32 4.34 4 4 C4.62134891 13.0440786 4.62134891 13.0440786 2.375 16.5 C-5.10361101 21.22333327 -13.74600526 21.09378304 -22.3125 21.1875 C-23.37186768 21.20707764 -23.37186768 21.20707764 -24.45263672 21.22705078 C-28.19329868 21.23333158 -29.80707623 21.12861585 -33 19 C-32.67 18.67 -32.34 18.34 -32 18 C-34.475 17.01 -34.475 17.01 -37 16 C-33.86630511 15.06982675 -31.12099541 14.90694055 -27.859375 14.97265625 C-26.87066406 14.98490234 -25.88195312 14.99714844 -24.86328125 15.00976562 C-22.80331057 15.04465848 -20.74340496 15.08365773 -18.68359375 15.12695312 C-12.7546249 15.19231789 -7.64303735 14.9008823 -2 13 C-0.71553081 10.43106162 -0.67022856 8.23423663 -0.4375 5.375 C-0.35371094 4.37210938 -0.26992187 3.36921875 -0.18359375 2.3359375 C-0.09271484 1.17964844 -0.09271484 1.17964844 0 0 Z " fill="#4D8BC4" transform="translate(98,221)"/>
<path d="M0 0 C9.86917614 8.52015207 20.35684014 27.17799397 21.42578125 40.1171875 C21.96273849 51.42708414 20.26431286 60.50317385 12.8125 69.375 C8.77466418 73.55942392 4.51350153 76.99700709 -1 79 C-2.32 79 -3.64 79 -5 79 C-4.505 78.01 -4.505 78.01 -4 77 C-0.9375 76.375 -0.9375 76.375 2 76 C2 75.34 2 74.68 2 74 C6.38461538 71 6.38461538 71 9 71 C9.66 69.68 10.32 68.36 11 67 C11.66 67 12.32 67 13 67 C13.4021875 65.6696875 13.4021875 65.6696875 13.8125 64.3125 C15 61 15 61 16.55078125 58.8046875 C18.4463913 55.13609447 18.45202681 51.84460848 18.375 47.8125 C18.36557373 47.05582031 18.35614746 46.29914063 18.34643555 45.51953125 C18.10472727 36.5214351 15.75586059 29.63031398 10.98828125 22.0078125 C10 20 10 20 10 16 C9.01 15.67 8.02 15.34 7 15 C5.17578125 12.63671875 5.17578125 12.63671875 3.3125 9.6875 C2.68988281 8.72199219 2.06726563 7.75648437 1.42578125 6.76171875 C0 4 0 4 0 0 Z " fill="#15A8E8" transform="translate(113,102)"/>
<path d="M0 0 C2.97 0.495 2.97 0.495 6 1 C6.60016221 6.75976572 4.72785523 10.07678033 1.8125 14.8125 C1.23145508 15.8324707 1.23145508 15.8324707 0.63867188 16.87304688 C-2.27934594 21.71068633 -2.27934594 21.71068633 -5.67578125 23.07421875 C-8 23 -8 23 -10 21 C-9.81204762 15.49217813 -7.29485656 11.64076105 -4.4375 7.125 C-4.01275391 6.43664062 -3.58800781 5.74828125 -3.15039062 5.0390625 C-2.1089225 3.35399048 -1.05564084 1.67622969 0 0 Z " fill="#58E488" transform="translate(319,114)"/>
<path d="M0 0 C4.1776139 1.7295078 5.48247142 4.98760286 7.5546875 8.859375 C7.96976562 9.57609375 8.38484375 10.2928125 8.8125 11.03125 C11.74130416 16.34214821 11.74130416 16.34214821 11.4375 20.125 C11.18742187 20.77984375 10.93734375 21.4346875 10.6796875 22.109375 C9.0296875 22.439375 7.3796875 22.769375 5.6796875 23.109375 C4.49183891 21.20881726 3.30526481 19.30762838 2.125 17.40234375 C1.18483641 15.91078692 0.22222287 14.43306919 -0.765625 12.97265625 C-4.21555898 7.79775528 -4.21555898 7.79775528 -4.7578125 4.234375 C-4.11888167 1.13099669 -3.18701288 0.15022956 0 0 Z " fill="#5CE589" transform="translate(257.3203125,113.890625)"/>
<path d="M0 0 C0.495 0.99 0.495 0.99 1 2 C1.66 2 2.32 2 3 2 C2.67 3.65 2.34 5.3 2 7 C0.02 7.66 -1.96 8.32 -4 9 C-4 9.66 -4 10.32 -4 11 C-32.4459541 11.47391696 -32.4459541 11.47391696 -40 9 C-40.66 8.01 -41.32 7.02 -42 6 C-40.50533203 6.24169922 -40.50533203 6.24169922 -38.98046875 6.48828125 C-28.0589354 8.03831047 -12.83998541 8.69683366 -3 3 C-1.29078411 1.4587688 -1.29078411 1.4587688 0 0 Z " fill="#B8C5D4" transform="translate(103,234)"/>
<path d="M0 0 C0.66 0 1.32 0 2 0 C3.65 3.3 5.3 6.6 7 10 C7.66 9.34 8.32 8.68 9 8 C11.125 8.375 11.125 8.375 13 9 C13.02688151 10.64574566 13.04634123 12.29161413 13.0625 13.9375 C13.07410156 14.85402344 13.08570313 15.77054687 13.09765625 16.71484375 C13 19 13 19 12 20 C9.6953125 20.3515625 9.6953125 20.3515625 7 20 C2.37784982 15.71646888 -1.82121815 9.95533706 -4 4 C-3.67 3.01 -3.34 2.02 -3 1 C-2.01 1.33 -1.02 1.66 0 2 C0 1.34 0 0.68 0 0 Z " fill="#8565EE" transform="translate(135,326)"/>
<path d="M0 0 C2.89693183 1.25272728 3.92811504 2.15431981 5.3125 5 C5.18427883 8.14141856 4.8120896 10.21117432 3.125 12.875 C0.36905076 14.58558918 -1.51375484 14.45339217 -4.6875 14 C-7.76722052 11.8928228 -8.55013561 10.65934906 -9.3125 7 C-8.6875 4 -8.6875 4 -6 1.5625 C-2.6875 0 -2.6875 0 0 0 Z " fill="#EDF4F1" transform="translate(294.6875,165)"/>
<path d="M0 0 C3.15330554 0.60694155 5.18888867 1.6416665 7.75 3.5625 C8.67039063 4.24505859 8.67039063 4.24505859 9.609375 4.94140625 C10.29773438 5.46541016 10.29773438 5.46541016 11 6 C10.67 6.99 10.34 7.98 10 9 C9.34 9 8.68 9 8 9 C8.33 9.598125 8.66 10.19625 9 10.8125 C10 13 10 13 10 16 C8.125 17.0625 8.125 17.0625 6 18 C3.48916886 16.74458443 3.12874554 15.49936512 2 13 C0.68 13 -0.64 13 -2 13 C-2.19294408 8.17639811 -1.75747614 4.50353262 0 0 Z " fill="#8B6BF4" transform="translate(243,293)"/>
<path d="M0 0 C1.875 1.125 1.875 1.125 3 3 C3.54624158 6.66762206 3.47898298 8.3258758 1.3125 11.375 C-1 13 -1 13 -3.5 13.5625 C-6 13 -6 13 -8.375 10.8125 C-10 8 -10 8 -9.9375 5.375 C-7.88828636 0.18365877 -5.54148729 -0.69268591 0 0 Z " fill="#4E6180" transform="translate(328,270)"/>
<path d="M0 0 C2.78506308 1.97886061 3.81084752 3.15932233 4.5625 6.5 C4 9 4 9 1.875 11.375 C-1 13 -1 13 -4.1875 12.9375 C-7 12 -7 12 -9 9 C-9.32502803 5.87973093 -9.51151479 3.85252465 -7.875 1.125 C-5.07553259 -0.55468045 -3.20195936 -0.45742277 0 0 Z " fill="#4B607F" transform="translate(61,270)"/>
<path d="M0 0 C2 1.625 2 1.625 3 4 C2.77962372 7.67293796 2.63033454 9.36966546 0 12 C-3.4375 12.375 -3.4375 12.375 -7 12 C-9.42061048 9.89172636 -9.9127007 8.59654522 -10.375 5.4375 C-10 3 -10 3 -8.9375 1.1875 C-5.87386726 -0.69021039 -3.49835955 -0.43729494 0 0 Z " fill="#556989" transform="translate(195,48)"/>
<path d="M0 0 C2.36340042 0.91910016 4.66378434 1.81626635 6.89111328 3.03344727 C13.89263205 6.24240915 23.55155728 5.26861959 31.125 5.5625 C32.176875 5.60568359 33.22875 5.64886719 34.3125 5.69335938 C36.87490627 5.79818509 39.43738799 5.90035355 42 6 C42 5.34 42 4.68 42 4 C46.79137588 2.3709322 50.05632546 1.79422572 55 3 C54.67 3.66 54.34 4.32 54 5 C51.49609375 5.4140625 51.49609375 5.4140625 48.4375 5.625 C46.91962891 5.73714844 46.91962891 5.73714844 45.37109375 5.8515625 C44.58863281 5.90054688 43.80617187 5.94953125 43 6 C43 6.66 43 7.32 43 8 C38.64425792 8.1501051 34.28994734 8.25802123 29.93237305 8.32958984 C28.45521779 8.35947031 26.97823534 8.40019224 25.50170898 8.45263672 C15.64349473 8.79361259 8.30791417 7.93247272 0 2 C0 1.34 0 0.68 0 0 Z " fill="#E0E2E7" transform="translate(57,239)"/>
<path d="M0 0 C0.33 0 0.66 0 1 0 C0.77739451 8.41853493 -1.63211234 16.04178516 -4.30615234 23.94091797 C-4.98885826 25.96693546 -5.64596027 27.99998262 -6.30078125 30.03515625 C-6.71714844 31.28167969 -7.13351562 32.52820313 -7.5625 33.8125 C-7.93503906 34.93269531 -8.30757813 36.05289063 -8.69140625 37.20703125 C-10.10380452 40.22155293 -11.08048446 41.44402468 -14 43 C-17.625 42.875 -17.625 42.875 -21 42 C-23.38105522 38.42841717 -23.39782115 37.21690421 -23 33 C-22.14309936 30.25098348 -21.10335962 27.66645241 -20 25 C-19.34 25 -18.68 25 -18 25 C-18.144375 25.66 -18.28875 26.32 -18.4375 27 C-20.05191928 33.64356695 -20.05191928 33.64356695 -19 40 C-17.02 40 -15.04 40 -13 40 C-7.26013179 27.06952766 -3.63144288 13.64625616 0 0 Z " fill="#45CF6B" transform="translate(374,245)"/>
<path d="M0 0 C0.66 0 1.32 0 2 0 C2.01458252 0.89493164 2.02916504 1.78986328 2.04418945 2.71191406 C2.44497528 26.05994789 2.44497528 26.05994789 5.37890625 49.19921875 C5.92796729 52.55919606 6.12290428 55.60677318 6 59 C-4.0915447 43.86268295 -0.21502138 17.45146639 0 0 Z " fill="#30AAF9" transform="translate(3,189)"/>
<path d="M0 0 C0.99 0.495 0.99 0.495 2 1 C2.5625 3.51171875 2.5625 3.51171875 3 6.6875 C3.6487111 11.00372737 4.5295461 14.88272909 6 19 C6.35919321 20.99551782 6.69496569 22.99548879 7 25 C7.31674575 26.33737094 7.64270064 27.67288808 8 29 C10.31 29 12.62 29 15 29 C15 28.34 15 27.68 15 27 C15.66 27 16.32 27 17 27 C16.855625 26.05898438 16.71125 25.11796875 16.5625 24.1484375 C16.376875 22.90320313 16.19125 21.65796875 16 20.375 C15.814375 19.14523437 15.62875 17.91546875 15.4375 16.6484375 C15.04597484 13.3833973 14.91919076 10.28287549 15 7 C15.66 7.33 16.32 7.66 17 8 C17.6328125 10.51171875 17.6328125 10.51171875 18.125 13.6875 C18.29257813 14.72261719 18.46015625 15.75773437 18.6328125 16.82421875 C19.57203132 24.94746237 19.57203132 24.94746237 17.4375 28.875 C15 31 15 31 11.4375 31.5 C7.77126736 30.9667298 7.16146929 30.79617731 5 28 C4.20043945 25.73510742 4.20043945 25.73510742 3.61328125 23.10546875 C3.39736328 22.14962891 3.18144531 21.19378906 2.95898438 20.20898438 C2.74564453 19.21189453 2.53230469 18.21480469 2.3125 17.1875 C2.08755859 16.20201172 1.86261719 15.21652344 1.63085938 14.20117188 C0.56998434 9.39982558 -0.31092352 4.94956628 0 0 Z " fill="#6947E1" transform="translate(195,344)"/>
<path d="M0 0 C0.4021875 0.47953125 0.804375 0.9590625 1.21875 1.453125 C-5.02398068 3.9325074 -10.06424653 4.77298231 -16.78125 4.453125 C-16.78125 3.793125 -16.78125 3.133125 -16.78125 2.453125 C-17.9878125 2.02 -17.9878125 2.02 -19.21875 1.578125 C-21.78125 0.453125 -21.78125 0.453125 -22.78125 -1.546875 C-4.39724758 -3.81866237 -4.39724758 -3.81866237 0 0 Z " fill="#E1F1FA" transform="translate(101.78125,176.546875)"/>
<path d="M0 0 C2.33388187 3.50082281 3.11087524 6.92127459 4.125 10.9375 C6.00151466 18.02655536 8.32118976 24.82402487 11.0625 31.625 C11.55484131 32.84884399 11.55484131 32.84884399 12.05712891 34.09741211 C15.13661786 42.62675457 15.13661786 42.62675457 20 50 C22.33297433 50.04092937 24.66705225 50.04241723 27 50 C26.67 50.66 26.34 51.32 26 52 C22.75 52.3125 22.75 52.3125 19 52 C14.99159213 48.04671758 13.14090455 43.18708854 11.0625 38.0625 C10.54308838 36.80312622 10.54308838 36.80312622 10.01318359 35.51831055 C-0.4908038 9.81607592 -0.4908038 9.81607592 0 0 Z " fill="#1C8BF4" transform="translate(9,249)"/>
<path d="M0 0 C2.610531 2.610531 3.13960761 5.42008512 4.125 8.875 C6.14139133 15.64504371 8.54721991 22.19899211 11.1875 28.75 C11.70497803 30.03559814 11.70497803 30.03559814 12.23291016 31.34716797 C14.00705646 35.7625165 14.00705646 35.7625165 16.1027832 40.02832031 C17.45239272 42.99415609 17.12335273 45.79282892 17 49 C16.01 49.495 16.01 49.495 15 50 C15.08507813 49.21109375 15.17015625 48.4221875 15.2578125 47.609375 C14.90062527 42.60875377 12.95413362 38.76615428 10.875 34.25 C7.76621321 27.253846 4.86694596 20.26260544 2.4375 13 C2.18661621 12.26555664 1.93573242 11.53111328 1.67724609 10.77441406 C0.47355841 7.08655659 -0.29606349 3.8867822 0 0 Z " fill="#2B98F6" transform="translate(21,249)"/>
<path d="M0 0 C0.56203125 0.144375 1.1240625 0.28875 1.703125 0.4375 C8.21450172 1.87559547 14.54590403 2.22064488 21.1875 2.25 C22.03022461 2.25902344 22.87294922 2.26804688 23.74121094 2.27734375 C29.1499729 2.25188077 33.80440221 1.51013915 39 0 C38.67 0.99 38.34 1.98 38 3 C31.53417149 5.26114939 25.2349233 5.33444133 18.4375 5.3125 C16.93413086 5.33666992 16.93413086 5.33666992 15.40039062 5.36132812 C9.47415765 5.36522953 5.25121567 4.79131941 0 2 C0 1.34 0 0.68 0 0 Z " fill="#E6F0FA" transform="translate(58,232)"/>
<path d="M0 0 C0.33 0 0.66 0 1 0 C1.28775473 3.70883875 1.42975431 7.29874103 1 11 C-1.1875 13.3125 -1.1875 13.3125 -4 15 C-4.70125 15.928125 -5.4025 16.85625 -6.125 17.8125 C-11.0104549 23.92319597 -18.98118848 27.77514065 -26 31 C-26 29.68 -26 28.36 -26 27 C-25.0821875 26.59910156 -24.164375 26.19820312 -23.21875 25.78515625 C-14.17095581 21.66691796 -6.91220772 17.43181876 -2.6328125 7.98046875 C-1.64946422 5.33899181 -0.77005838 2.71040284 0 0 Z " fill="#D1DFEA" transform="translate(133,155)"/>
<path d="M0 0 C3.07692308 5.29230769 3.07692308 5.29230769 2.6875 8.875 C2.460625 9.57625 2.23375 10.2775 2 11 C0.35 11.33 -1.3 11.66 -3 12 C-3.86380259 10.71475739 -4.71580369 9.42157581 -5.5625 8.125 C-6.03816406 7.40570313 -6.51382812 6.68640625 -7.00390625 5.9453125 C-7.33261719 5.30335938 -7.66132813 4.66140625 -8 4 C-6.4425489 0.88509781 -3.40085499 0 0 0 Z " fill="#50E082" transform="translate(266,125)"/>
<path d="M0 0 C0.33 0 0.66 0 1 0 C1.66463149 11.61258911 0.47357932 20.30760367 -7.1875 29.375 C-11.22533582 33.55942392 -15.48649847 36.99700709 -21 39 C-22.32 39 -23.64 39 -25 39 C-24.67 38.34 -24.34 37.68 -24 37 C-20.9375 36.375 -20.9375 36.375 -18 36 C-18 35.34 -18 34.68 -18 34 C-13.61538462 31 -13.61538462 31 -11 31 C-10.34 29.68 -9.68 28.36 -9 27 C-8.34 27 -7.68 27 -7 27 C-6.731875 26.113125 -6.46375 25.22625 -6.1875 24.3125 C-5 21 -5 21 -3.4375 18.6875 C-1.40360521 14.88500105 -1.33984403 11.24443497 -1 7 C-0.69645159 4.66139461 -0.34741147 2.33261985 0 0 Z " fill="#1297DF" transform="translate(133,142)"/>
<path d="M0 0 C4.20059624 1.40019875 5.19051525 4.36825877 7.1875 8.0625 C7.55552734 8.72572266 7.92355469 9.38894531 8.30273438 10.07226562 C9.21012062 11.71027457 10.10615573 13.35456221 11 15 C10.01 15.33 9.02 15.66 8 16 C4.9083091 13.47043472 4.09068668 10.77545388 3 7 C0.03268602 8.83656989 0.03268602 8.83656989 -2 11 C-2 10.01 -2 9.02 -2 8 C-2.66 8 -3.32 8 -4 8 C-2.87548273 5.0280615 -1.77706209 2.66559313 0 0 Z " fill="#15BDF2" transform="translate(99,80)"/>
<path d="M0 0 C7.34918342 -0.43230491 13.90215087 1.18225815 21 3 C20.67 3.66 20.34 4.32 20 5 C19.071875 4.814375 18.14375 4.62875 17.1875 4.4375 C13.98656229 3.75876119 13.98656229 3.75876119 11 5 C8.93326094 5.01592966 6.86573917 4.96615799 4.80078125 4.87890625 C3.59228516 4.83056641 2.38378906 4.78222656 1.13867188 4.73242188 C-0.12396484 4.67634766 -1.38660156 4.62027344 -2.6875 4.5625 C-3.96173828 4.51029297 -5.23597656 4.45808594 -6.54882812 4.40429688 C-9.69946039 4.27449555 -12.84978577 4.1395244 -16 4 C-16 3.67 -16 3.34 -16 3 C-8.74 2.67 -1.48 2.34 6 2 C3.03 1.505 3.03 1.505 0 1 C0 0.67 0 0.34 0 0 Z " fill="#4C94D0" transform="translate(85,169)"/>
<path d="M0 0 C0 0.33 0 0.66 0 1 C-1.10859375 1.04898437 -2.2171875 1.09796875 -3.359375 1.1484375 C-4.82294065 1.22349215 -6.28648112 1.29903881 -7.75 1.375 C-8.84441406 1.42140625 -8.84441406 1.42140625 -9.9609375 1.46875 C-13.73942656 1.6748494 -16.77946668 1.91512843 -20 4 C-20 6.31 -20 8.62 -20 11 C-18.68 11 -17.36 11 -16 11 C-16 11.66 -16 12.32 -16 13 C-18.375 12.6875 -18.375 12.6875 -21 12 C-23.32749345 8.50875983 -23.50299316 7.10777749 -23 3 C-18.57886451 -4.30448472 -7.19110255 -0.84071345 0 0 Z " fill="#5DECA3" transform="translate(220,12)"/>
<path d="M0 0 C0.66 0 1.32 0 2 0 C4.24319801 4.35444319 3.87863221 7.25538607 3 12 C3 12.99 3 13.98 3 15 C0.04948346 11.54077371 -2.25855517 8.2161296 -4 4 C-3.67 3.01 -3.34 2.02 -3 1 C-2.01 1.33 -1.02 1.66 0 2 C0 1.34 0 0.68 0 0 Z " fill="#7C5DEE" transform="translate(135,326)"/>
<path d="M0 0 C1.08667969 0.19464844 2.17335938 0.38929688 3.29296875 0.58984375 C4.54013672 0.82380859 4.54013672 0.82380859 5.8125 1.0625 C5.8125 1.7225 5.8125 2.3825 5.8125 3.0625 C8.1225 3.0625 10.4325 3.0625 12.8125 3.0625 C12.8125 3.3925 12.8125 3.7225 12.8125 4.0625 C9.72924642 4.1207253 6.64613495 4.15617134 3.5625 4.1875 C2.25345703 4.21263672 2.25345703 4.21263672 0.91796875 4.23828125 C0.07363281 4.24472656 -0.77070313 4.25117188 -1.640625 4.2578125 C-2.41567383 4.26828613 -3.19072266 4.27875977 -3.98925781 4.28955078 C-6.44633539 4.03576556 -8.06061542 3.28694152 -10.1875 2.0625 C-8.03339703 -2.24570595 -3.98584074 -0.72859454 0 0 Z " fill="#D8EAE1" transform="translate(286.1875,193.9375)"/>
<path d="M0 0 C0.33 0 0.66 0 1 0 C1.12598425 7.43307087 1.12598425 7.43307087 0.5 10.25 C-0.17093815 13.94015985 -0.10589141 17.57750065 -0.0625 21.3125 C-0.05798828 22.05306641 -0.05347656 22.79363281 -0.04882812 23.55664062 C-0.03712175 25.37112899 -0.01918898 27.18557534 0 29 C-3.89958485 23.15062272 -3.45647216 17.92316112 -3 11 C-2.2362997 7.24366015 -1.2225807 3.63135577 0 0 Z " fill="#33A6E9" transform="translate(68,131)"/>
<path d="M0 0 C-0.33 0.66 -0.66 1.32 -1 2 C-9.63662924 4.21452032 -20.29699247 3.51980033 -29 2 C-29.33 1.34 -29.66 0.68 -30 0 C-28.7934375 0.01160156 -27.586875 0.02320313 -26.34375 0.03515625 C-24.72916823 0.04454335 -23.11458476 0.05364256 -21.5 0.0625 C-20.70851563 0.07087891 -19.91703125 0.07925781 -19.1015625 0.08789062 C-15.20304802 0.10386814 -11.42936106 -0.01094784 -7.5625 -0.53125 C-4.51311815 -0.93248445 -2.82108932 -1.05790849 0 0 Z " fill="#AFBECE" transform="translate(96,241)"/>
<path d="M0 0 C0.33 0 0.66 0 1 0 C1.33 1.65 1.66 3.3 2 5 C2.66 4.67 3.32 4.34 4 4 C4.02698189 5.62490954 4.04638757 7.24994633 4.0625 8.875 C4.07410156 9.77992188 4.08570312 10.68484375 4.09765625 11.6171875 C4 14 4 14 3 16 C0.03 15.505 0.03 15.505 -3 15 C-2.52433594 14.18789062 -2.52433594 14.18789062 -2.0390625 13.359375 C-0.81692026 10.5842851 -0.59056564 8.26791902 -0.375 5.25 C-0.30023438 4.26515625 -0.22546875 3.2803125 -0.1484375 2.265625 C-0.09945312 1.51796875 -0.05046875 0.7703125 0 0 Z " fill="#3F82C3" transform="translate(98,221)"/>
<path d="M0 0 C4.10498209 0.08071719 8.20846109 0.19357487 12.3125 0.3125 C13.47974609 0.33505859 14.64699219 0.35761719 15.84960938 0.38085938 C17.52700195 0.4340332 17.52700195 0.4340332 19.23828125 0.48828125 C20.26993408 0.51446533 21.30158691 0.54064941 22.36450195 0.56762695 C25 1 25 1 28 4 C20.74 4 13.48 4 6 4 C5.67 3.34 5.34 2.68 5 2 C2.47266765 1.34444881 2.47266765 1.34444881 0 1 C0 0.67 0 0.34 0 0 Z " fill="#4E95CF" transform="translate(61,181)"/>
<path d="M0 0 C1.203125 1.65625 1.203125 1.65625 2 4 C0.734375 6.65625 0.734375 6.65625 -1.25 9.5 C-3.38336576 12.60618055 -5.4166333 15.57475775 -7 19 C-7.99 19 -8.98 19 -10 19 C-8.62394084 14.23448987 -6.53221934 10.2751447 -3.875 6.125 C-3.50246094 5.53203125 -3.12992187 4.9390625 -2.74609375 4.328125 C-1.83635 2.8818657 -0.91896202 1.44041954 0 0 Z " fill="#18A8ED" transform="translate(79,112)"/>
<path d="M0 0 C2.23550088 4.47100176 2.23550088 4.47100176 2.0625 8.0625 C1.78408463 11.90432805 1.78408463 11.90432805 3 15 C3.78375 14.938125 4.5675 14.87625 5.375 14.8125 C6.24125 14.874375 7.1075 14.93625 8 15 C8.99 16.485 8.99 16.485 10 18 C6.37 18 2.74 18 -1 18 C-0.505 9.09 -0.505 9.09 0 0 Z " fill="#D5DDE6" transform="translate(103,217)"/>
<path d="M0 0 C-1 2 -1 2 -2.73046875 2.6328125 C-13.03405898 4.69680673 -23.54322454 4.17988366 -34 4 C-34 3.67 -34 3.34 -34 3 C-27.07 3 -20.14 3 -13 3 C-13 2.34 -13 1.68 -13 1 C-8.23947038 -0.97387813 -5.03511899 -1.0070238 0 0 Z " fill="#D0D7DF" transform="translate(112,242)"/>
<path d="M0 0 C0.66 0 1.32 0 2 0 C1.855625 0.66 1.71125 1.32 1.5625 2 C-0.05191928 8.64356695 -0.05191928 8.64356695 1 15 C2.65 15 4.3 15 6 15 C6 15.99 6 16.98 6 18 C2.625 17.6875 2.625 17.6875 -1 17 C-3.38105522 13.42841717 -3.39782115 12.21690421 -3 8 C-2.14309936 5.25098348 -1.10335962 2.66645241 0 0 Z " fill="#51D072" transform="translate(354,270)"/>
<path d="M0 0 C0.66 0 1.32 0 2 0 C0.36644648 4.2107125 -2.76223005 6.98539535 -5.9375 10.0625 C-6.47568359 10.59166016 -7.01386719 11.12082031 -7.56835938 11.66601562 C-9.04205208 13.1142685 -10.52082454 14.55734739 -12 16 C-13.00131033 16.99868795 -14.00166067 17.99834209 -15 19 C-15 15.37831818 -14.39781062 14.99554544 -11.97265625 12.4609375 C-11.03196289 11.46707031 -11.03196289 11.46707031 -10.07226562 10.453125 C-9.40904297 9.76734375 -8.74582031 9.0815625 -8.0625 8.375 C-7.40314453 7.68148437 -6.74378906 6.98796875 -6.06445312 6.2734375 C-1.90609056 1.90609056 -1.90609056 1.90609056 0 0 Z " fill="#3ACFFB" transform="translate(64,60)"/>
<path d="M0 0 C0.33 0 0.66 0 1 0 C1.25668426 5.91175936 0.2956568 11.18145712 -1 16.9375 C-1.19078125 17.81212891 -1.3815625 18.68675781 -1.578125 19.58789062 C-2.04563934 21.72676873 -2.51971817 23.86395935 -3 26 C-3.33 26 -3.66 26 -4 26 C-2.8258427 2.8258427 -2.8258427 2.8258427 0 0 Z " fill="#6D4BE3" transform="translate(173,344)"/>
<path d="M0 0 C0.33 0 0.66 0 1 0 C1.5073957 3.20720862 2.004579 6.41592163 2.5 9.625 C2.64308594 10.52863281 2.78617187 11.43226563 2.93359375 12.36328125 C3.63734167 16.95439866 4.18584778 21.33831815 4 26 C-0.80032457 18.79951314 -0.85135009 9.42730661 -1 1 C-0.67 0.67 -0.34 0.34 0 0 Z " fill="#219FF9" transform="translate(5,222)"/>
<path d="M0 0 C0.33 1.32 0.66 2.64 1 4 C1.66 4.66 2.32 5.32 3 6 C1.35 6.66 -0.3 7.32 -2 8 C-2.33 10.31 -2.66 12.62 -3 15 C-6.75 16.125 -6.75 16.125 -9 15 C-6.03 10.05 -3.06 5.1 0 0 Z " fill="#14B2EF" transform="translate(89,96)"/>
<path d="M0 0 C0.33 0 0.66 0 1 0 C1 3.3 1 6.6 1 10 C0.34 10 -0.32 10 -1 10 C-1.33 11.65 -1.66 13.3 -2 15 C-4 13 -4 13 -4.1953125 10.3984375 C-4.17210937 9.40070313 -4.14890625 8.40296875 -4.125 7.375 C-4.10695312 6.37210937 -4.08890625 5.36921875 -4.0703125 4.3359375 C-4.04710937 3.56507813 -4.02390625 2.79421875 -4 2 C-3.67 2.66 -3.34 3.32 -3 4 C-2.34 3.67 -1.68 3.34 -1 3 C-0.67 2.01 -0.34 1.02 0 0 Z " fill="#815EF4" transform="translate(133,311)"/>
<path d="M0 0 C3.3 0.99 6.6 1.98 10 3 C6 4 6 4 4 3 C4 4.32 4 5.64 4 7 C3.34 7 2.68 7 2 7 C2 9.64 2 12.28 2 15 C-0.02558881 11.65060119 -0.21738987 9.13037449 -0.125 5.25 C-0.09792969 3.77273437 -0.09792969 3.77273437 -0.0703125 2.265625 C-0.04710937 1.51796875 -0.02390625 0.7703125 0 0 Z " fill="#5098D3" transform="translate(48,179)"/>
<path d="M0 0 C6.93 3.96 6.93 3.96 14 8 C13.01 8.66 12.02 9.32 11 10 C10.071875 9.505 9.14375 9.01 8.1875 8.5 C5.13472484 6.78710148 5.13472484 6.78710148 2 7 C1.34 4.69 0.68 2.38 0 0 Z " fill="#D6D5DA" transform="translate(204,219)"/>
<path d="M0 0 C0.66 0 1.32 0 2 0 C0.59844241 3.33772993 -0.9509686 5.01749057 -3.875 7.125 C-4.55304688 7.62257812 -5.23109375 8.12015625 -5.9296875 8.6328125 C-9.63955629 11.08272585 -11.42449099 12 -16 12 C-15.67 11.34 -15.34 10.68 -15 10 C-11.9375 9.375 -11.9375 9.375 -9 9 C-9 8.34 -9 7.68 -9 7 C-4.61538462 4 -4.61538462 4 -2 4 C-1.34 2.68 -0.68 1.36 0 0 Z " fill="#1186D5" transform="translate(124,169)"/>
<path d="M0 0 C-2.53649481 2.53649481 -3.7297356 2.33647209 -7.25 2.5625 C-10.42474834 2.78689321 -13.37017467 3.07271288 -16.5 3.6875 C-19 4 -19 4 -22 2 C-19.08483516 1.46915208 -16.16839443 0.95000945 -13.25 0.4375 C-12.425 0.28603516 -11.6 0.13457031 -10.75 -0.02148438 C-9.95078125 -0.16005859 -9.1515625 -0.29863281 -8.328125 -0.44140625 C-7.5949707 -0.57232666 -6.86181641 -0.70324707 -6.10644531 -0.83813477 C-3.83766713 -1.01247412 -2.16221421 -0.66874807 0 0 Z " fill="#48DAFC" transform="translate(171,13)"/>
<path d="M0 0 C2.35118505 3.52677757 3.23266895 7.01108656 4.25 11.0625 C4.44851562 11.79533203 4.64703125 12.52816406 4.8515625 13.28320312 C5.32907553 15.16730347 5.6747158 17.08374245 6 19 C5.34 19.66 4.68 20.32 4 21 C3.32382476 18.62734939 2.65891774 16.25244645 2 13.875 C1.80921875 13.20984375 1.6184375 12.5446875 1.421875 11.859375 C0.30791545 7.8013795 -0.20950232 4.20314026 0 0 Z " fill="#2798F7" transform="translate(9,249)"/>
<path d="M0 0 C3.3 1.98 6.6 3.96 10 6 C9.67 6.66 9.34 7.32 9 8 C6.69 7.67 4.38 7.34 2 7 C2 5.68 2 4.36 2 3 C1.34 3 0.68 3 0 3 C0 2.01 0 1.02 0 0 Z " fill="#D8D7DC" transform="translate(233,237)"/>
<path d="M0 0 C0 1.66666667 0 3.33333333 0 5 C-3.63 4.67 -7.26 4.34 -11 4 C-10.67 3.01 -10.34 2.02 -10 1 C-6.52674819 -0.1577506 -3.63932552 -0.06866652 0 0 Z " fill="#63A2D5" transform="translate(67,180)"/>
<path d="M0 0 C0 0.99 0 1.98 0 3 C-0.99 3.33 -1.98 3.66 -3 4 C-3 11.59 -3 19.18 -3 27 C-3.33 27 -3.66 27 -4 27 C-4.11594584 23.06274674 -4.18716464 19.12593077 -4.25 15.1875 C-4.28351563 14.06794922 -4.31703125 12.94839844 -4.3515625 11.79492188 C-4.36445313 10.72177734 -4.37734375 9.64863281 -4.390625 8.54296875 C-4.41157227 7.55321045 -4.43251953 6.56345215 -4.45410156 5.54370117 C-4 3 -4 3 -1.97558594 1.15356445 C-1.32364258 0.77288818 -0.67169922 0.39221191 0 0 Z " fill="#E8E3F8" transform="translate(211,303)"/>
<path d="M0 0 C5.28 0.66 10.56 1.32 16 2 C16 2.66 16 3.32 16 4 C4.1310267 4.56122991 4.1310267 4.56122991 0 1 C0 0.67 0 0.34 0 0 Z " fill="#30B87E" transform="translate(279,191)"/>
<path d="M0 0 C0.94552734 0.16242188 0.94552734 0.16242188 1.91015625 0.328125 C2.57015625 1.318125 3.23015625 2.308125 3.91015625 3.328125 C0.69564356 4.93538135 -2.52596911 4.38560685 -6.08984375 4.328125 C-6.41984375 3.338125 -6.74984375 2.348125 -7.08984375 1.328125 C-5.19856033 -0.56315842 -2.51916649 0.0914398 0 0 Z " fill="#579DD4" transform="translate(60.08984375,170.671875)"/>
<path d="M0 0 C-2.66666667 2.66666667 -5.33333333 5.33333333 -8 8 C-8.6875 5.6875 -8.6875 5.6875 -9 3 C-6.81596628 -0.72570458 -3.98864065 -0.26590938 0 0 Z " fill="#546888" transform="translate(61,270)"/>
<path d="M0 0 C0.66 0 1.32 0 2 0 C2 0.66 2 1.32 2 2 C4.64 2.66 7.28 3.32 10 4 C9.01 4.66 8.02 5.32 7 6 C3.3125 5.125 3.3125 5.125 0 4 C-0.33 4.66 -0.66 5.32 -1 6 C-1.042721 4.33388095 -1.04063832 2.66617115 -1 1 C-0.67 0.67 -0.34 0.34 0 0 Z " fill="#5EA0D6" transform="translate(50,176)"/>
<path d="M0 0 C2 3 2 3 4 6 C6.56282742 6.72965366 6.56282742 6.72965366 9 7 C9.33 6.01 9.66 5.02 10 4 C10.99 5.485 10.99 5.485 12 7 C8.75846834 9.1610211 7.76307099 9.64247553 4 9 C1.6875 6.75 1.6875 6.75 0 4 C0 2.68 0 1.36 0 0 Z " fill="#5F708C" transform="translate(318,274)"/>
<path d="M0 0 C3.3 0 6.6 0 10 0 C9.67 0.99 9.34 1.98 9 3 C6.03 3 3.06 3 0 3 C0 2.01 0 1.02 0 0 Z " fill="#DBF4E8" transform="translate(285,151)"/>
<path d="M0 0 C0.66 0 1.32 0 2 0 C1.67 0.556875 1.34 1.11375 1 1.6875 C-0.16594721 4.38375292 -0.29134297 6.08657033 0 9 C0.91568906 11.25132517 0.91568906 11.25132517 2 13 C1.01 13.495 1.01 13.495 0 14 C-1.98686827 10.66206131 -3.03920425 8.67954041 -2.8125 4.75 C-2 2 -2 2 0 0 Z " fill="#8D6FF3" transform="translate(149,265)"/>
<path d="M0 0 C4.67403315 1.81767956 4.67403315 1.81767956 6.84375 3.03125 C9.3714424 4.16687992 11.49416304 4.40743392 14.25 4.625 C15.58804688 4.73714844 15.58804688 4.73714844 16.953125 4.8515625 C17.96632813 4.92503906 17.96632813 4.92503906 19 5 C19 5.33 19 5.66 19 6 C11.43801103 6.44701413 6.23664375 6.53574091 0 2 C0 1.34 0 0.68 0 0 Z " fill="#D4D9E1" transform="translate(57,239)"/>
<path d="M0 0 C2.64 0 5.28 0 8 0 C8 0.66 8 1.32 8 2 C10.31 2 12.62 2 15 2 C15 2.33 15 2.66 15 3 C12.87561661 3.08078641 10.7503677 3.13909141 8.625 3.1875 C7.44164062 3.22230469 6.25828125 3.25710937 5.0390625 3.29296875 C3.53472656 3.14794922 3.53472656 3.14794922 2 3 C1.34 2.01 0.68 1.02 0 0 Z " fill="#E0F0E9" transform="translate(284,195)"/>
<path d="M0 0 C3 3.75 3 3.75 3 6 C7.455 5.505 7.455 5.505 12 5 C11.01 6.485 11.01 6.485 10 8 C4.05767669 8.64825345 4.05767669 8.64825345 1.0625 6.8125 C-0.32851983 4.43958382 -0.21917317 2.70313576 0 0 Z " fill="#5737D9" transform="translate(200,367)"/>
<path d="M0 0 C0.33 0 0.66 0 1 0 C1.33 1.65 1.66 3.3 2 5 C2.66 4.67 3.32 4.34 4 4 C3.67 6.31 3.34 8.62 3 11 C2.01 11 1.02 11 0 11 C0 7.37 0 3.74 0 0 Z " fill="#4689CA" transform="translate(98,221)"/>
<path d="M0 0 C0 0.99 0 1.98 0 3 C-2.97 4.65 -5.94 6.3 -9 8 C-9 6.68 -9 5.36 -9 4 C-6.03 2.68 -3.06 1.36 0 0 Z " fill="#CAD8E4" transform="translate(116,178)"/>
<path d="M0 0 C3.63 0.66 7.26 1.32 11 2 C11 2.99 11 3.98 11 5 C9.741875 4.87625 8.48375 4.7525 7.1875 4.625 C6.12595703 4.52058594 6.12595703 4.52058594 5.04296875 4.4140625 C3 4 3 4 0 2 C0 1.34 0 0.68 0 0 Z " fill="#CEE0F3" transform="translate(58,232)"/>
<path d="M0 0 C1.12588014 0.95729916 2.2506715 1.91587895 3.375 2.875 C4.00148437 3.40867188 4.62796875 3.94234375 5.2734375 4.4921875 C6.55836651 5.61432007 7.79371975 6.79371975 9 8 C8.01 8.33 7.02 8.66 6 9 C2.8125 7.375 2.8125 7.375 0 5 C-0.375 2.25 -0.375 2.25 0 0 Z " fill="#DADADF" transform="translate(179,210)"/>
<path d="M0 0 C2.12508244 3.18762365 2.5020163 5.26512223 3 9 C2.01 9.33 1.02 9.66 0 10 C0 11.65 0 13.3 0 15 C-0.33 15 -0.66 15 -1 15 C-0.67 10.05 -0.34 5.1 0 0 Z " fill="#6FABDB" transform="translate(51,194)"/>
<path d="M0 0 C2.60334924 2.71182212 2.99456691 3.89133813 3.1875 7.75 C3.125625 8.8225 3.06375 9.895 3 11 C2.67 11 2.34 11 2 11 C1.67 9.35 1.34 7.7 1 6 C0.67 7.98 0.34 9.96 0 12 C-0.33 12 -0.66 12 -1 12 C-1.14285714 3.42857143 -1.14285714 3.42857143 0 0 Z " fill="#4D91CC" transform="translate(103,183)"/>
<path d="M0 0 C2.475 0.99 2.475 0.99 5 2 C5 2.66 5 3.32 5 4 C7.97 4 10.94 4 14 4 C14 4.33 14 4.66 14 5 C12.04196493 5.05389087 10.08351091 5.09274217 8.125 5.125 C7.03445312 5.14820313 5.94390625 5.17140625 4.8203125 5.1953125 C2 5 2 5 0 3 C0 2.01 0 1.02 0 0 Z " fill="#128EDC" transform="translate(70,164)"/>
<path d="M0 0 C-0.33 0.66 -0.66 1.32 -1 2 C-1.7425 1.95875 -2.485 1.9175 -3.25 1.875 C-6.08758952 2.00398134 -7.58773938 2.57051222 -10 4 C-7.53453745 -1.4592385 -5.69047474 -1.11335375 0 0 Z " fill="#9379F4" transform="translate(52,316)"/>
<path d="M0 0 C2.475 0.99 2.475 0.99 5 2 C5 2.99 5 3.98 5 5 C3.68 5.33 2.36 5.66 1 6 C-0.0625 4.125 -0.0625 4.125 -1 2 C-0.67 1.34 -0.34 0.68 0 0 Z " fill="#D6D6DC" transform="translate(198,216)"/>
<path d="M0 0 C0.33 0 0.66 0 1 0 C1.28571429 8.57142857 1.28571429 8.57142857 -1 12 C-1.66 11.67 -2.32 11.34 -3 11 C-2.25 3.375 -2.25 3.375 0 0 Z " fill="#629ED3" transform="translate(55,213)"/>
<path d="M0 0 C0.99 0.33 1.98 0.66 3 1 C3.22174933 2.45635371 3.42698698 3.91522956 3.625 5.375 C3.74101562 6.18710937 3.85703125 6.99921875 3.9765625 7.8359375 C3.98429688 8.55007813 3.99203125 9.26421875 4 10 C3.34 10.66 2.68 11.32 2 12 C1.34 8.04 0.68 4.08 0 0 Z " fill="#6C4BDF" transform="translate(197,357)"/>
<path d="M0 0 C3.3125 -0.25 3.3125 -0.25 7 0 C8.9375 2 8.9375 2 10 4 C9.443125 3.649375 8.88625 3.29875 8.3125 2.9375 C4.55681863 1.41492647 1.7167488 2.76108373 -2 4 C-1.34 2.68 -0.68 1.36 0 0 Z " fill="#896BF2" transform="translate(226,265)"/>
<path d="M0 0 C0.33 0 0.66 0 1 0 C1.07654536 4.51617599 1.10228696 8.59085217 0 13 C-2.58772586 9.1184112 -1.87719799 7.46573523 -1 3 C-0.67 2.01 -0.34 1.02 0 0 Z " fill="#24A8EE" transform="translate(68,131)"/>
<path d="M0 0 C3.875 1.875 3.875 1.875 5 3 C5.04080783 4.99958364 5.04254356 7.00045254 5 9 C4.01 9.495 4.01 9.495 3 10 C3 7.69 3 5.38 3 3 C2.01 2.67 1.02 2.34 0 2 C0 1.34 0 0.68 0 0 Z " fill="#39DBFC" transform="translate(177,12)"/>
<path d="M0 0 C-0.33 0.66 -0.66 1.32 -1 2 C-4.63 1.67 -8.26 1.34 -12 1 C-12 0.67 -12 0.34 -12 0 C-3.42857143 -1.28571429 -3.42857143 -1.28571429 0 0 Z " fill="#93AEC7" transform="translate(96,241)"/>
<path d="M0 0 C0.33 1.32 0.66 2.64 1 4 C1.66 4.66 2.32 5.32 3 6 C0.69 6.66 -1.62 7.32 -4 8 C-2.68 5.36 -1.36 2.72 0 0 Z " fill="#1FB8F0" transform="translate(89,96)"/>
<path d="M0 0 C0.99 0.33 1.98 0.66 3 1 C2.43628586 4.26954202 1.50037734 5.82575883 -1 8 C-0.67 5.36 -0.34 2.72 0 0 Z " fill="#E5E0F7" transform="translate(190,335)"/>
<path d="M0 0 C1.65 0.33 3.3 0.66 5 1 C5 1.66 5 2.32 5 3 C3.68 3 2.36 3 1 3 C0.67 4.32 0.34 5.64 0 7 C-0.93423645 3.98968256 -1.04449911 3.13349732 0 0 Z " fill="#E3DFF7" transform="translate(136,305)"/>
<path d="M0 0 C1 4 1 4 0.00390625 5.703125 C-1.33072917 7.13541667 -2.66536458 8.56770833 -4 10 C-4.66 9.34 -5.32 8.68 -6 8 C-4.02 5.36 -2.04 2.72 0 0 Z " fill="#8A6CF2" transform="translate(222,270)"/>
<path d="M0 0 C1.65 0.33 3.3 0.66 5 1 C5 1.66 5 2.32 5 3 C3.66666667 4.33333333 2.33333333 5.66666667 1 7 C1 6.01 1 5.02 1 4 C0.34 4 -0.32 4 -1 4 C-0.67 2.68 -0.34 1.36 0 0 Z " fill="#20C9F6" transform="translate(96,84)"/>
<path d="M0 0 C0 0.33 0 0.66 0 1 C-1.98 1 -3.96 1 -6 1 C-6.33 1.99 -6.66 2.98 -7 4 C-8.32 3.67 -9.64 3.34 -11 3 C-8.89427904 -1.21144191 -4.11694326 -0.07767817 0 0 Z " fill="#80B4DD" transform="translate(67,180)"/>
<path d="M0 0 C2.8992226 0.46761655 3.86675182 0.86675182 6 3 C4.02 3.66 2.04 4.32 0 5 C-0.5625 3.0625 -0.5625 3.0625 -1 1 C-0.67 0.67 -0.34 0.34 0 0 Z " fill="#987FF4" transform="translate(243,293)"/>
<path d="M0 0 C0 3 0 3 -1.5 4.6875 C-1.995 5.120625 -2.49 5.55375 -3 6 C-3.66 5.67 -4.32 5.34 -5 5 C-4 2 -4 2 -1.9375 0.8125 C-1.298125 0.544375 -0.65875 0.27625 0 0 Z " fill="#A3B8CE" transform="translate(100,237)"/>
<path d="M0 0 C-0.33 1.32 -0.66 2.64 -1 4 C-3.475 3.01 -3.475 3.01 -6 2 C-6 1.34 -6 0.68 -6 0 C-3.50907189 -1.24546405 -2.58919267 -0.7767578 0 0 Z " fill="#DFF4EB" transform="translate(301,154)"/>
</svg>
