<?xml version="1.0" encoding="UTF-8"?>
<svg version="1.1" xmlns="http://www.w3.org/2000/svg" width="395" height="395">
<path d="M0 0 C130.35 0 260.7 0 395 0 C395 130.35 395 260.7 395 395 C264.65 395 134.3 395 0 395 C0 264.65 0 134.3 0 0 Z " fill="#17212F" transform="translate(0,0)"/>
<path d="M0 0 C4.24224715 1.41408238 5.25005097 4.46606095 7.3125 8.1875 C11.38222047 15.34209481 15.71107369 22.28091166 20.1875 29.1875 C37.87783445 56.68631325 37.87783445 56.68631325 36 73 C33.25066677 83.62911867 28.05890355 91.72845139 19 98 C15.19461625 100.174505 13.44494611 101 9 101 C8.38932884 106.92060225 7.83138134 112.84378929 7.31640625 118.7734375 C7.192147 120.19011204 7.06779645 121.60677857 6.94335938 123.0234375 C6.75244484 125.1970765 6.56285893 127.37078573 6.37768555 129.54492188 C4.24887128 154.47037636 4.24887128 154.47037636 1.56103516 157.76245117 C-7.03918074 164.58048282 -22.17702187 162.56015328 -32.42578125 161.71875 C-37.184163 161.04909952 -40.3876553 160.38481543 -43.85255432 156.79426575 C-46.37224301 152.8542177 -46.3591103 147.96944281 -46.80078125 143.41796875 C-46.92688278 142.28982254 -47.05298431 141.16167633 -47.1829071 139.99934387 C-47.57992787 136.39727934 -47.9460279 132.79278662 -48.3125 129.1875 C-48.57686748 126.77257676 -48.84312307 124.35785942 -49.11132812 121.94335938 C-51.33323384 101.5030089 -51.33323384 101.5030089 -51 95 C-47.63859793 91.12145915 -42.27768354 90.14500477 -37.3515625 89.5859375 C-35.50691406 89.48152344 -35.50691406 89.48152344 -33.625 89.375 C-31.75714844 89.26285156 -31.75714844 89.26285156 -29.8515625 89.1484375 C-28.91054687 89.09945312 -27.96953125 89.05046875 -27 89 C-27.34933594 88.24074219 -27.69867188 87.48148437 -28.05859375 86.69921875 C-28.74115234 85.20841797 -28.74115234 85.20841797 -29.4375 83.6875 C-30.11619141 82.20830078 -30.11619141 82.20830078 -30.80859375 80.69921875 C-34.6012107 72.10676527 -34.06308904 62.09560221 -31.25 53.25 C-27.81969264 44.64022005 -22.63555103 37.05166054 -17.54443359 29.34863281 C-15.18726492 25.7640671 -12.90003717 22.13708041 -10.625 18.5 C-10.21757568 17.85047363 -9.81015137 17.20094727 -9.39038086 16.53173828 C-6.03429788 11.14185384 -2.93486284 5.63111894 0 0 Z " fill="#019DDE" transform="translate(104,70)"/>
<path d="M0 0 C0.82113281 -0.02578125 1.64226562 -0.0515625 2.48828125 -0.078125 C4.6875 0.25 4.6875 0.25 6.44921875 1.55078125 C8.56312951 4.45157362 8.17128637 6.8030221 7.6875 10.25 C3.86096161 14.28831246 0.2627737 14.89559175 -5.0625 15.25 C-46.2506212 19.15170472 -87.66297905 42.06091318 -114.125 73.75 C-115.53421198 75.57306977 -116.92996383 77.40661845 -118.3125 79.25 C-119.06273437 80.1884375 -119.81296875 81.126875 -120.5859375 82.09375 C-134.64576621 100.47617978 -144.10301916 122.07265757 -150.3125 144.25 C-150.50376465 144.93255859 -150.6950293 145.61511719 -150.89208984 146.31835938 C-151.8746139 149.93808276 -152.62741984 153.56422247 -153.3125 157.25 C-153.48950439 158.19617188 -153.66650879 159.14234375 -153.84887695 160.1171875 C-155.49795827 170.1603823 -155.65137376 180.06794171 -155.62817383 190.22607422 C-155.62501277 193.11334 -155.64856258 195.99957864 -155.67382812 198.88671875 C-155.71175812 210.06087104 -154.86765605 220.35829382 -152.3125 231.25 C-152.00817926 232.60666094 -151.70472256 233.96351597 -151.40209961 235.32055664 C-148.08318014 249.86531831 -143.32698479 264.25097614 -136.28125 277.42578125 C-135.02191425 281.0971512 -135.34985232 283.51974023 -136.3125 287.25 C-139.78173881 289.56282587 -141.23455575 289.67478586 -145.3125 289.25 C-160.68541865 277.36910204 -166.66388013 238.68324806 -169.01733398 220.60131836 C-169.11473877 219.8253833 -169.21214355 219.04944824 -169.3125 218.25 C-169.41054932 217.57267822 -169.50859863 216.89535645 -169.60961914 216.19750977 C-176.23400165 166.32224378 -162.19729123 113.23189493 -131.84912109 73.22705078 C-101.61750124 34.33037814 -58.30294182 7.12324137 -9.08984375 0.66015625 C-6.04170216 0.32917914 -3.06316973 0.05862526 0 0 Z " fill="#16AEF1" transform="translate(179.3125,1.75)"/>
<path d="M0 0 C12.48306736 2.36873815 24.12021983 6.06910007 35.8125 11 C36.57739746 11.31839844 37.34229492 11.63679687 38.13037109 11.96484375 C53.30944717 18.38688866 67.34873416 27.20820275 79.8125 38 C80.98425781 39.00740234 80.98425781 39.00740234 82.1796875 40.03515625 C118.67893519 72.16149088 144.74622347 117.87519243 148.8125 167 C149.22153929 174.39017018 149.25434252 181.7878508 149.25 189.1875 C149.24960724 190.71842285 149.24960724 190.71842285 149.24920654 192.28027344 C149.18063313 214.88206943 145.73698681 234.96758788 138.75 256.4375 C138.53676086 257.09427734 138.32352173 257.75105469 138.1038208 258.42773438 C137.49038413 260.28927852 136.85306122 262.14289931 136.21484375 263.99609375 C135.84866943 265.06013428 135.48249512 266.1241748 135.10522461 267.22045898 C133.71929981 270.20039362 132.33731239 271.9158084 129.8125 274 C127.3125 274.5 127.3125 274.5 124.8125 274 C122.5 272.4375 122.5 272.4375 120.8125 270 C119.66089647 263.98607046 122.138801 259.31488109 124.37890625 253.78125 C141.59549002 209.83396216 138.35852399 157.65056639 119.90844727 114.79736328 C101.4148947 73.14443364 69.18239157 40.31914219 26.8125 23 C10.37871174 16.71808464 -7.00880074 13.04831303 -24.54125977 11.77050781 C-29.7007697 11.33059108 -29.7007697 11.33059108 -32.16015625 9.66015625 C-33.93147205 6.7977638 -33.53595939 4.25228767 -33.1875 1 C-28.12289547 -6.87017682 -7.60290994 -1.34627032 0 0 Z " fill="#74E57A" transform="translate(236.1875,4)"/>
<path d="M0 0 C2.91866303 0.18557973 5.38902092 0.36750591 7.96484375 1.81640625 C9.45172703 4.60431239 9.26084278 6.55531527 8.96484375 9.69140625 C7.3125 12.734375 7.3125 12.734375 5.02734375 15.87890625 C4.61983887 16.44279053 4.21233398 17.0066748 3.79248047 17.58764648 C-0.26307325 23.13731051 -4.54800169 28.4848236 -9.03515625 33.69140625 C-9.86660156 34.65820312 -10.69804687 35.625 -11.5546875 36.62109375 C-32.54787305 60.52924177 -60.70162672 77.49695917 -90.90917969 87.00976562 C-92.70715061 87.58623954 -94.48701911 88.21871721 -96.26171875 88.86328125 C-140.04063802 104.20360337 -189.79304784 94.7361176 -230.625 75.3984375 C-254.13727102 63.87855369 -273.9213637 47.36274491 -291.03515625 27.69140625 C-292.14310547 26.43263672 -292.14310547 26.43263672 -293.2734375 25.1484375 C-296.01300256 21.87084163 -297.83351595 19.58198425 -298.78515625 15.37890625 C-298.03515625 12.69140625 -298.03515625 12.69140625 -295.91015625 10.25390625 C-293.03515625 8.69140625 -293.03515625 8.69140625 -290.2109375 8.6953125 C-285.83503214 10.06782894 -284.08394375 12.51497297 -281.34765625 16.06640625 C-280.40720466 17.24164999 -279.46582656 18.41615303 -278.5234375 19.58984375 C-277.70230469 20.61335938 -276.88117188 21.636875 -276.03515625 22.69140625 C-275.48883545 23.20912598 -274.94251465 23.7268457 -274.37963867 24.26025391 C-273.03515625 25.69140625 -273.03515625 25.69140625 -273.03515625 27.69140625 C-272.37515625 27.69140625 -271.71515625 27.69140625 -271.03515625 27.69140625 C-269.30789022 29.31997137 -267.66792836 30.97142618 -266.03515625 32.69140625 C-241.91869251 58.08389389 -206.89121618 72.41561357 -173.03515625 78.69140625 C-171.85953125 78.93503906 -170.68390625 79.17867188 -169.47265625 79.4296875 C-136.48336336 85.37261159 -101.74392794 78.29628621 -72.03515625 63.69140625 C-71.06570068 63.22395996 -71.06570068 63.22395996 -70.07666016 62.74707031 C-53.87092332 54.86319834 -39.88011691 44.25444734 -27.03515625 31.69140625 C-25.85759766 30.60666016 -25.85759766 30.60666016 -24.65625 29.5 C-16.61441257 21.9185182 -9.66312349 12.68592494 -3.93359375 3.23828125 C-2.03515625 0.69140625 -2.03515625 0.69140625 0 0 Z " fill="#6E49E1" transform="translate(345.03515625,296.30859375)"/>
<path d="M0 0 C5.60207495 4.10672942 10.35943167 9.05029395 15 14.19921875 C15.91072266 15.18341797 15.91072266 15.18341797 16.83984375 16.1875 C18.52948561 19.11735036 18.52979297 20.86611183 18 24.19921875 C16.4104057 26.45436281 14.97625658 28.20502365 13.0625 30.13671875 C12.30924438 30.92103271 12.30924438 30.92103271 11.54077148 31.72119141 C0.55535703 42.95552272 -12.65603857 51.26761627 -28.74804688 51.57983398 C-47.07107111 51.53654829 -60.26826822 46.1355339 -73.7578125 33.46484375 C-80.54220598 26.60953326 -80.54220598 26.60953326 -82 23.19921875 C-81.84111607 15.89055804 -76.66539481 11.45747933 -71.68701172 6.68896484 C-51.05509426 -11.5304216 -23.67457582 -14.51327055 0 0 Z " fill="#17232D" transform="translate(325,143.80078125)"/>
<path d="M0 0 C3.07648663 3.02813321 5.48616885 6.50162663 8 10 C13.08875728 16.51178783 19.440474 23.58635777 28 25 C39.0886024 25.71010754 46.39119809 25.28693898 54.9375 18.0625 C60.41903497 12.91189362 64.65016427 7.10364193 69 1 C70 0 70 0 73.375 -0.25 C77 0 77 0 78.9375 1.125 C80.48680664 3.85907054 80.23511675 5.8903914 80 9 C77.13954014 15.42383136 72.44483178 20.8898756 67.75 26.0625 C67.28964355 26.57111572 66.82928711 27.07973145 66.35498047 27.60375977 C63.96847482 30.15791928 61.68593831 32.23038974 58.84765625 34.3125 C53.40055148 38.2185444 53.40055148 38.2185444 50.49511719 44.06005859 C49.86918977 49.74053115 50.35888666 55.34178817 51 61 C51.10513916 62.02407959 51.10513916 62.02407959 51.21240234 63.06884766 C52.10068912 71.36304084 53.83072204 79.52201282 55.5703125 87.671875 C58.21963301 100.88116319 58.21963301 100.88116319 57 107 C54.60321982 109.32538673 53.32494529 109.94584245 50 110.5 C47 110 47 110 44.93261719 107.96411133 C42.64010276 104.44801511 41.82708709 101.1330706 41.078125 97.07421875 C40.92841248 96.32662796 40.77869995 95.57903717 40.62445068 94.80879211 C40.15276659 92.43745879 39.70113489 90.0628191 39.25 87.6875 C38.9323093 86.07200554 38.6133124 84.45676736 38.29296875 82.84179688 C37.51349836 78.89733662 36.75197855 74.94978953 36 71 C35.34 71 34.68 71 34 71 C33.86424561 71.69971924 33.72849121 72.39943848 33.58862305 73.12036133 C32.95914805 76.35191492 32.32335782 79.58219652 31.6875 82.8125 C31.36749023 84.46282227 31.36749023 84.46282227 31.04101562 86.14648438 C29.98339789 91.49771441 28.87198252 96.83630287 27.58203125 102.13671875 C27.37425049 103.00385498 27.16646973 103.87099121 26.95239258 104.7644043 C25.7724531 107.5341315 24.61596331 108.54388548 22 110 C15.67272727 109.67272727 15.67272727 109.67272727 13 107 C12.00028397 99.55445135 13.61852604 91.88302029 14.875 84.5625 C15.13603516 82.97985352 15.13603516 82.97985352 15.40234375 81.36523438 C16.23878758 76.3310817 17.12475131 71.30918 18.0625 66.29296875 C21.08104237 52.68481145 21.08104237 52.68481145 17.54980469 39.83740234 C13.75275075 35.6158769 9.36829943 32.12137818 4.92724609 28.60449219 C0.94739443 25.29114216 -2.0399896 21.21260925 -5 17 C-5.52207031 16.28199219 -6.04414063 15.56398438 -6.58203125 14.82421875 C-9.29382717 10.85737679 -10.92263299 7.95915232 -10 3 C-7.69206967 -1.07281823 -4.24244728 -0.90412811 0 0 Z " fill="#7659E9" transform="translate(162,255)"/>
<path d="M0 0 C2.88369707 0.96123236 4.82855008 1.1495097 7.83203125 1.2109375 C8.78972412 1.23744385 9.74741699 1.2639502 10.73413086 1.29125977 C12.25792358 1.33271118 12.25792358 1.33271118 13.8125 1.375 C22.87645755 1.68036744 31.22766642 2.58266718 40 5 C40 5.99 40 6.98 40 8 C29.76987041 10.22624582 20.08628435 11.31001119 9.60253906 11.06445312 C8.79913086 11.04576172 7.99572266 11.02707031 7.16796875 11.0078125 C6.10485474 10.97131592 6.10485474 10.97131592 5.02026367 10.93408203 C2.88507368 11.00374986 1.0480595 11.41073376 -1 12 C-1 12.66 -1 13.32 -1 14 C16.20020168 14.33809551 16.20020168 14.33809551 33.2578125 12.4375 C35.89788294 12.01629218 38.33342719 11.96868776 41 12 C37.48071289 47.19287109 37.48071289 47.19287109 37.23416138 49.5614624 C37.06806265 51.2912011 36.93001283 53.02373656 36.81149292 54.75738525 C36.74406891 55.65551941 36.6766449 56.55365356 36.60717773 57.47900391 C36.55432114 58.29543365 36.50146454 59.1118634 36.44700623 59.95303345 C36 62 36 62 33.3125 64.0625 C27.05418588 65.83372098 21.08698287 66.2093586 14.625 66.25 C13.81289062 66.270625 13.00078125 66.29125 12.1640625 66.3125 C6.43633471 66.3492162 2.19634678 65.46567231 -3 63 C-3.66 62.01 -4.32 61.02 -5 60 C-5.66 60.66 -6.32 61.32 -7 62 C-8.48031524 55.83827851 -9.53421495 49.72315856 -10.2890625 43.43359375 C-10.45128799 42.11609886 -10.45128799 42.11609886 -10.61679077 40.77198792 C-10.8424252 38.92939546 -11.06583775 37.08652966 -11.28710938 35.2434082 C-11.62461714 32.44067937 -11.97200716 29.63929573 -12.3203125 26.83789062 C-12.53965725 25.03653065 -12.75842676 23.23510053 -12.9765625 21.43359375 C-13.07965729 20.60629257 -13.18275208 19.77899139 -13.28897095 18.92662048 C-13.88224175 13.9143148 -14.23688394 9.0482832 -14 4 C-10.6020227 0.07925696 -4.93014476 -1.87005491 0 0 Z " fill="#0167B8" transform="translate(67,161)"/>
<path d="M0 0 C0.99 0.66 1.98 1.32 3 2 C3.28624875 4.78136975 3.37823168 7.33918793 3.34057617 10.12158203 C3.34123329 11.38023071 3.34123329 11.38023071 3.34190369 12.66430664 C3.3398089 15.44570965 3.31644563 18.22651443 3.29296875 21.0078125 C3.28737524 22.93309195 3.28310399 24.85837565 3.28010559 26.78366089 C3.26863749 31.85711403 3.23915346 36.93031054 3.20599365 42.00366211 C3.17533505 47.17818733 3.16160927 52.35275393 3.14648438 57.52734375 C3.11428561 67.68500875 3.06306559 77.84248305 3 88 C3.62390625 88.29519531 4.2478125 88.59039062 4.890625 88.89453125 C7.54163967 90.28385931 8.57292985 91.35992023 10 94 C10.1875 97.75 10.1875 97.75 10 101 C10.70237793 101.25797363 11.40475586 101.51594727 12.12841797 101.78173828 C15.26500552 103.11242795 18.03591314 104.71876534 20.9453125 106.4921875 C21.50863785 106.8343782 22.0719632 107.17656891 22.65235901 107.52912903 C24.47902954 108.64044559 26.30213411 109.75745558 28.125 110.875 C29.38769423 111.6457243 30.65047152 112.41631256 31.91333008 113.18676758 C68.60775299 135.60775299 68.60775299 135.60775299 72 139 C72.26587831 142.05760057 72.43409881 144.20840805 70.9375 146.9375 C67.83114871 148.64098297 65.39305903 147.69817483 62 147 C59.01586914 145.56396484 59.01586914 145.56396484 56.03515625 143.7109375 C54.91633057 143.02338379 53.79750488 142.33583008 52.64477539 141.62744141 C51.45051317 140.87689871 50.25642516 140.12607876 49.0625 139.375 C47.82542092 138.60884106 46.58770048 137.84371679 45.34936523 137.07958984 C42.17913239 135.11917758 39.01808003 133.14449343 35.85986328 131.16479492 C33.47510983 129.67127185 31.08640143 128.18415121 28.69752502 126.69723511 C23.23150777 123.29495886 17.77439549 119.87883582 12.32641602 116.44775391 C11.55869873 115.96999512 10.79098145 115.49223633 10 115 C9.12706299 114.44296387 8.25412598 113.88592773 7.35473633 113.31201172 C4.50299483 111.72307871 3.28195596 111.89483272 0.125 112.5 C-5.01897599 113.18127063 -7.56622593 112.74893992 -12 110 C-15.14878675 106.60899888 -16.25628584 103.97540458 -16.4375 99.4375 C-16.25520182 95.57017431 -15.50180366 93.05776003 -13 90 C-11.515 89.01 -11.515 89.01 -10 88 C-9.69975411 85.26575093 -9.5937401 82.75488309 -9.61523438 80.01782227 C-9.6098616 79.19329559 -9.60448883 78.36876892 -9.59895325 77.51925659 C-9.58915581 75.72572235 -9.58623701 73.9321406 -9.58930969 72.13858223 C-9.59377275 69.30194965 -9.5798308 66.46594592 -9.56091309 63.62937927 C-9.52405926 57.60709658 -9.51040899 51.58487889 -9.5 45.5625 C-9.48793931 38.58892787 -9.46647483 31.61566034 -9.41999817 24.64222527 C-9.40638469 21.84409145 -9.41060692 19.04633839 -9.41540527 16.2481842 C-9.40606716 14.53597523 -9.39589897 12.82377051 -9.38476562 11.11157227 C-9.39398796 9.94024498 -9.39398796 9.94024498 -9.40339661 8.74525452 C-9.34346522 3.51073159 -9.34346522 3.51073159 -7.66345215 1.01255798 C-5.0666217 -0.5681556 -2.96499 -0.30885312 0 0 Z " fill="#40597A" transform="translate(200,95)"/>
<path d="M0 0 C5.60207495 4.10672942 10.35943167 9.05029395 15 14.19921875 C15.91072266 15.18341797 15.91072266 15.18341797 16.83984375 16.1875 C18.52948561 19.11735036 18.52979297 20.86611183 18 24.19921875 C16.4104057 26.45436281 14.97625658 28.20502365 13.0625 30.13671875 C12.30924438 30.92103271 12.30924438 30.92103271 11.54077148 31.72119141 C0.55535703 42.95552272 -12.65603857 51.26761627 -28.74804688 51.57983398 C-47.07107111 51.53654829 -60.26826822 46.1355339 -73.7578125 33.46484375 C-80.54220598 26.60953326 -80.54220598 26.60953326 -82 23.19921875 C-81.84111607 15.89055804 -76.66539481 11.45747933 -71.68701172 6.68896484 C-51.05509426 -11.5304216 -23.67457582 -14.51327055 0 0 Z M-71 16.19921875 C-71.94552734 16.95332031 -71.94552734 16.95332031 -72.91015625 17.72265625 C-74.2479391 19.21733269 -74.2479391 19.21733269 -73.9296875 21.61328125 C-70.59442211 30.89036396 -59.24774481 36.89301916 -50.9921875 41.26171875 C-41.64148229 45.62258575 -28.38897448 45.74114657 -18.390625 43.328125 C-6.16980846 38.86957351 2.81489377 32.24365776 11 22.19921875 C6.00874971 11.53395279 -4.18039985 4.67837418 -14.6953125 0 C-16.78896058 -0.72745399 -18.83856051 -1.31694438 -21 -1.80078125 C-21.94875 -2.02765625 -22.8975 -2.25453125 -23.875 -2.48828125 C-43.7019658 -4.47097783 -57.25630475 2.68563103 -71 16.19921875 Z " fill="#77E277" transform="translate(325,143.80078125)"/>
<path d="M0 0 C4.97926799 2.20036223 7.98306852 5.59403247 10.55078125 10.34375 C12.54453013 16.32499663 12.54986701 23.01809022 9.86328125 28.78125 C6.51427504 34.51905784 1.78031616 37.26723836 -4.44921875 39.34375 C-11.00825519 40.57738628 -15.71185215 38.8885213 -21.20703125 35.2421875 C-25.47179298 31.63125684 -27.9043232 27.53299158 -28.84765625 22.01171875 C-29.13674096 15.48507544 -27.07699695 10.23296365 -23.07421875 5.09375 C-16.60973212 -1.67856933 -8.92366471 -2.39102978 0 0 Z " fill="#73DF70" transform="translate(301.44921875,145.65625)"/>
<path d="M0 0 C1.61523392 1.61523392 1.17083351 3.32585763 1.1875 5.5625 C1.13486427 10.73396051 0.62136066 15.75772124 -0.07739258 20.87890625 C-0.71357981 25.58158491 -1.24902765 30.28654308 -1.73046875 35.0078125 C-1.92129028 36.87191772 -1.92129028 36.87191772 -2.1159668 38.77368164 C-2.36818016 41.26198376 -2.61588239 43.75074808 -2.85864258 46.23999023 C-4.4398416 61.66927666 -4.4398416 61.66927666 -8.125 64.8125 C-14.69213372 67.52501175 -20.784642 68.3385769 -27.8125 68.25 C-28.98945435 68.23876099 -28.98945435 68.23876099 -30.19018555 68.22729492 C-46.36288174 67.92937245 -46.36288174 67.92937245 -51.25 63.625 C-53 61 -53 61 -53.0625 59 C-51.6739083 56.38618033 -49.92722378 54.23806632 -48 52 C-48 54.64 -48 57.28 -48 60 C-42.04799814 61.71810363 -36.74278034 62.30985744 -30.5625 62.25 C-29.76779297 62.25773437 -28.97308594 62.26546875 -28.15429688 62.2734375 C-22.01255311 62.2534481 -15.57380004 61.78690002 -10 59 C-9.50879719 56.92518008 -9.50879719 56.92518008 -9.31396484 54.38842773 C-9.21401215 53.40748642 -9.11405945 52.4265451 -9.01107788 51.4158783 C-8.86250839 49.81589745 -8.86250839 49.81589745 -8.7109375 48.18359375 C-8.60278717 47.0974025 -8.49463684 46.01121124 -8.38320923 44.8921051 C-8.0383522 41.40803526 -7.70655108 37.92285882 -7.375 34.4375 C-7.14408523 32.08129615 -6.91232561 29.72517494 -6.6796875 27.36914062 C-6.10996935 21.58035182 -5.55097732 15.79060094 -5 10 C-6.22468994 10.14219971 -7.44937988 10.28439941 -8.71118164 10.4309082 C-10.33999045 10.61683993 -11.96881623 10.80262307 -13.59765625 10.98828125 C-14.80452087 11.12901062 -14.80452087 11.12901062 -16.0357666 11.27258301 C-26.14304372 12.41733697 -35.898957 12.1135008 -46 11 C-46 9.68 -46 8.36 -46 7 C-45.36199463 7.01571045 -44.72398926 7.0314209 -44.06665039 7.04760742 C-30.67487013 7.33259009 -18.08345443 6.98644069 -5 4 C-12.25149133 -0.83432755 -22.34974369 -0.33377686 -30.8125 -0.5625 C-42.77114054 -0.92582004 -42.77114054 -0.92582004 -48 -2 C-36.97566129 -9.34955914 -10.96005816 -6.63371941 0 0 Z " fill="#39C5F2" transform="translate(112,164)"/>
<path d="M0 0 C2.88369707 0.96123236 4.82855008 1.1495097 7.83203125 1.2109375 C8.78972412 1.23744385 9.74741699 1.2639502 10.73413086 1.29125977 C12.25792358 1.33271118 12.25792358 1.33271118 13.8125 1.375 C22.87645755 1.68036744 31.22766642 2.58266718 40 5 C40 5.99 40 6.98 40 8 C29.75904148 10.22860237 20.10020641 11.32555937 9.60253906 10.9765625 C8.39742676 10.94369141 8.39742676 10.94369141 7.16796875 10.91015625 C6.45922607 10.88058838 5.7504834 10.85102051 5.02026367 10.82055664 C2.94089776 10.86026804 2.94089776 10.86026804 1.17700195 12.06811523 C-2.04061413 13.445444 -4.63823375 12.64649351 -8 12 C-7.87882812 13.09876465 -7.75765625 14.1975293 -7.6328125 15.32958984 C-7.18010799 19.44782318 -6.73454387 23.56680431 -6.29101562 27.68603516 C-6.0989203 29.46098305 -5.90494822 31.23572896 -5.70898438 33.01025391 C-3.46634968 53.34271231 -3.46634968 53.34271231 -4 60 C-4.99 60.66 -5.98 61.32 -7 62 C-8.48031524 55.83827851 -9.53421495 49.72315856 -10.2890625 43.43359375 C-10.45128799 42.11609886 -10.45128799 42.11609886 -10.61679077 40.77198792 C-10.8424252 38.92939546 -11.06583775 37.08652966 -11.28710938 35.2434082 C-11.62461714 32.44067937 -11.97200716 29.63929573 -12.3203125 26.83789062 C-12.53965725 25.03653065 -12.75842676 23.23510053 -12.9765625 21.43359375 C-13.07965729 20.60629257 -13.18275208 19.77899139 -13.28897095 18.92662048 C-13.88224175 13.9143148 -14.23688394 9.0482832 -14 4 C-10.6020227 0.07925696 -4.93014476 -1.87005491 0 0 Z " fill="#31BDED" transform="translate(67,161)"/>
<path d="M0 0 C1.74023438 0.2165625 1.74023438 0.2165625 3.515625 0.4375 C16.32795138 1.98334101 28.05340325 2.53732643 40.87109375 0.4375 C44 0 44 0 49 0 C48.34 5.94 47.68 11.88 47 18 C45.515 17.67 44.03 17.34 42.5 17 C35.9376446 15.90235394 29.45870682 15.77434508 22.8125 15.75 C21.7915625 15.74097656 20.770625 15.73195312 19.71875 15.72265625 C13.50794727 15.7468228 8.01075866 16.42709119 2 18 C0.176679 11.84629161 -0.2361959 6.40353322 0 0 Z " fill="#173C5F" transform="translate(59,173)"/>
<path d="M0 0 C0.763125 0.804375 1.52625 1.60875 2.3125 2.4375 C4.79430898 5.16799024 4.79430898 5.16799024 8 6 C8.47018509 10.00550086 8.27179343 11.61440894 5.91015625 14.96484375 C4.9785837 15.97233704 4.02823906 16.96270863 3.0625 17.9375 C2.30924438 18.72181396 2.30924438 18.72181396 1.54077148 19.52197266 C-9.44356748 30.75520411 -22.65833849 39.07307813 -38.75024414 39.37988281 C-39.92574829 39.37746582 -39.92574829 39.37746582 -41.125 39.375 C-41.94669678 39.37338867 -42.76839355 39.37177734 -43.61499023 39.37011719 C-51.00228998 39.22376299 -58.28228666 38.28286444 -65 35 C-66.18359375 32.921875 -66.18359375 32.921875 -67 31 C-67.99 30.67 -68.98 30.34 -70 30 C-70 29.34 -70 28.68 -70 28 C-66.56469564 26.81541229 -64.58851075 27.20740891 -61.1875 28.375 C-48.70414605 32.62211883 -34.09615115 32.93587823 -21.99609375 27.54296875 C-13.00762873 22.91396786 -6.30502276 17.96709179 0 10 C-0.49113281 9.09507812 -0.49113281 9.09507812 -0.9921875 8.171875 C-2.17423027 5.62452701 -2.15421553 3.77587962 -2 1 C-1.34 0.67 -0.68 0.34 0 0 Z " fill="#6BD96D" transform="translate(335,156)"/>
<path d="M0 0 C3.77740757 1.92724876 4.76352465 3.59010939 6.875 7.25 C8.64082864 13.13609546 8.0836158 16.98223264 5.1875 22.375 C2.5610951 25.52668588 0.69844507 26.75896654 -3.3671875 27.3359375 C-9.09465733 27.42515043 -12.56447399 27.00279176 -17 23 C-19.86978703 19.55625557 -20.53389166 16.55315186 -20.35546875 12.05859375 C-19.60737845 7.72624662 -17.42763875 4.34885074 -14.23046875 1.328125 C-9.90222571 -1.24911254 -4.85994072 -0.58585587 0 0 Z " fill="#867DF0" transform="translate(203,249)"/>
<path d="M0 0 C5.0830303 1.96389807 6.85940834 7.1540893 9.0625 11.875 C10.66128174 19.28753352 10.57053874 25.77254163 6.91796875 32.50390625 C5.75 34.0625 5.75 34.0625 2.75 36.0625 C-0.26689707 36.39771079 -2.34775379 36.62196915 -5.25 36.0625 C-7.8125 34 -7.8125 34 -9.25 31.0625 C-9.25 26.69185582 -7.9810092 23.36409072 -6.25 19.4375 C-4.01832283 14.20876901 -3.656175 9.29369926 -3.42578125 3.65234375 C-3.18388742 0.08844132 -3.18388742 0.08844132 0 0 Z " fill="#24D1F7" transform="translate(120.25,113.9375)"/>
<path d="M0 0 C3.99500618 1.3697164 6.80009492 3.25722422 10 6 C9.814375 6.928125 9.62875 7.85625 9.4375 8.8125 C8.75876119 12.01343771 8.75876119 12.01343771 10 15 C11.07705425 28.2785403 9.14692639 38.02170436 0.6875 48.75 C-0.52773708 50.17863361 -1.75182016 51.60005635 -3 53 C-4.65 52.67 -6.3 52.34 -8 52 C-8 48.7 -8 45.4 -8 42 C-4 42 -4 42 -2 43 C-1.32438252 41.3369416 -0.66066719 39.66905395 0 38 C0.515625 36.8140625 1.03125 35.628125 1.5625 34.40625 C3.31454328 29.72413005 3.34462679 25.44747958 3.1875 20.5 C3.17396484 19.67757813 3.16042969 18.85515625 3.14648438 18.0078125 C3.11155016 16.00491779 3.05776057 14.00236644 3 12 C1.35 12.33 -0.3 12.66 -2 13 C-2.05391993 11.20866022 -2.09275571 9.41686101 -2.125 7.625 C-2.14820313 6.62726563 -2.17140625 5.62953125 -2.1953125 4.6015625 C-2 2 -2 2 0 0 Z " fill="#7D5CE3" transform="translate(249,283)"/>
<path d="M0 0 C1.32 0.66 2.64 1.32 4 2 C4 5.63 4 9.26 4 13 C2.35 12.67 0.7 12.34 -1 12 C-1.45639918 23.63817901 -1.68177114 32.97734329 5 43 C6.32 42.34 7.64 41.68 9 41 C10 42 10 42 10.09765625 44.28515625 C10.08605469 45.20167969 10.07445312 46.11820312 10.0625 47.0625 C10.05347656 47.98160156 10.04445312 48.90070313 10.03515625 49.84765625 C10.02355469 50.55792969 10.01195312 51.26820313 10 52 C8.2109375 52.671875 8.2109375 52.671875 6 53 C-0.68496206 48.90965792 -5.61677914 39.99770869 -7.65625 32.62890625 C-8.09744849 29.25474054 -8.13185319 25.96510932 -8.125 22.5625 C-8.12757813 21.28503906 -8.13015625 20.00757813 -8.1328125 18.69140625 C-8.01275971 15.3546449 -7.58123228 12.27981073 -7 9 C-7 7.68 -7 6.36 -7 5 C-5.46875 3.515625 -5.46875 3.515625 -3.5 2.25 C-2.8503125 1.82203125 -2.200625 1.3940625 -1.53125 0.953125 C-1.0259375 0.63859375 -0.520625 0.3240625 0 0 Z " fill="#7E5FE1" transform="translate(143,283)"/>
<path d="M0 0 C0.33 0 0.66 0 1 0 C2.73241636 8.6620818 2.36262425 17.47181087 0 26 C-3.29973955 30.47964642 -8.79448026 31.15083142 -14 32 C-36.85497798 33.75602858 -36.85497798 33.75602858 -44.80859375 28.89453125 C-46.25 27.625 -46.25 27.625 -48 25 C-48.11859828 21.204855 -45.37489406 18.75794149 -43 16 C-43 18.64 -43 21.28 -43 24 C-37.04799814 25.71810363 -31.74278034 26.30985744 -25.5625 26.25 C-24.76779297 26.25773437 -23.97308594 26.26546875 -23.15429688 26.2734375 C-17.01255311 26.2534481 -10.57380004 25.78690002 -5 23 C-4.52381188 20.12817413 -4.15832403 17.32879853 -3.875 14.4375 C-3.78863281 13.63119141 -3.70226562 12.82488281 -3.61328125 11.99414062 C-3.40056372 9.99695936 -3.19922145 7.99857263 -3 6 C-2.34 6 -1.68 6 -1 6 C-1.020625 5.195625 -1.04125 4.39125 -1.0625 3.5625 C-1 1 -1 1 0 0 Z " fill="#21A2E1" transform="translate(107,200)"/>
<path d="M0 0 C15.49552941 -0.77156163 29.45918449 2.02182233 41.65673828 12.41113281 C52.09510415 21.88192276 52.09510415 21.88192276 54 28 C52.88625 26.7934375 52.88625 26.7934375 51.75 25.5625 C49.24695171 23.23011409 48.2819045 22.36465606 45 22 C44.505 23.485 44.505 23.485 44 25 C43.46632813 24.49210937 42.93265625 23.98421875 42.3828125 23.4609375 C28.98010288 11.07850335 16.64780601 7.72223136 -1 6 C0.65 4.68 2.3 3.36 4 2 C2.68 1.34 1.36 0.68 0 0 Z " fill="#7EE57C" transform="translate(288,135)"/>
<path d="M0 0 C0 0.99 0 1.98 0 3 C-16.62945337 6.4965559 -31.43850414 7.40939985 -48 3 C-48 2.01 -48 1.02 -48 0 C-33.30734047 -5.65102289 -14.85787395 -4.0719785 0 0 Z " fill="#173145" transform="translate(107,166)"/>
<path d="M0 0 C1.59038086 0.00193359 1.59038086 0.00193359 3.21289062 0.00390625 C10.61635434 0.09491379 17.25193503 0.73426554 24.25 3.3125 C24.25 4.3025 24.25 5.2925 24.25 6.3125 C8.74139401 10.44157418 -5.24139401 10.44157418 -20.75 6.3125 C-21.08 4.6625 -21.41 3.0125 -21.75 1.3125 C-20.76 1.8075 -20.76 1.8075 -19.75 2.3125 C-18.63109375 2.00957031 -17.5121875 1.70664063 -16.359375 1.39453125 C-10.92610432 -0.05932184 -5.59541209 -0.02802962 0 0 Z " fill="#025596" transform="translate(81.75,187.6875)"/>
<path d="M0 0 C1.22203125 0.28423828 1.22203125 0.28423828 2.46875 0.57421875 C4.05553693 0.95867176 5.63948742 1.35525286 7.21875 1.76953125 C12.70322923 3.07491244 18.01082243 3.39732917 23.625 3.4375 C24.32947266 3.44668457 25.03394531 3.45586914 25.75976562 3.46533203 C30.79187983 3.43596629 35.15827576 2.55841518 40 1.1875 C40 1.8475 40 2.5075 40 3.1875 C39.34 3.5175 38.68 3.8475 38 4.1875 C37.34227572 7.21684491 37.34227572 7.21684491 37 10.1875 C25.23895442 13.0981813 9.94041315 12.53394624 -1 7.1875 C-2.18359375 5.109375 -2.18359375 5.109375 -3 3.1875 C-3.99 2.8575 -4.98 2.5275 -6 2.1875 C-6 1.5275 -6 0.8675 -6 0.1875 C-3.48488179 -1.07005911 -2.68793008 -0.66718264 0 0 Z " fill="#68D867" transform="translate(271,183.8125)"/>
<path d="M0 0 C4.55555556 0.55555556 4.55555556 0.55555556 6 2 C6.25256877 5.97275815 6.18522451 9.95766175 6.1875 13.9375 C6.19974609 15.06091797 6.21199219 16.18433594 6.22460938 17.34179688 C6.22750977 18.94958008 6.22750977 18.94958008 6.23046875 20.58984375 C6.23457764 21.57847412 6.23868652 22.56710449 6.24291992 23.58569336 C6 26 6 26 4 28 C-0.55555556 27.44444444 -0.55555556 27.44444444 -2 26 C-2.25256877 22.02724185 -2.18522451 18.04233825 -2.1875 14.0625 C-2.19974609 12.93908203 -2.21199219 11.81566406 -2.22460938 10.65820312 C-2.22654297 9.58634766 -2.22847656 8.51449219 -2.23046875 7.41015625 C-2.23457764 6.42152588 -2.23868652 5.43289551 -2.24291992 4.41430664 C-2 2 -2 2 0 0 Z " fill="#83E97F" transform="translate(291,93)"/>
<path d="M0 0 C4.1776139 1.7295078 5.48247142 4.98760286 7.5546875 8.859375 C7.96976562 9.57609375 8.38484375 10.2928125 8.8125 11.03125 C11.74130416 16.34214821 11.74130416 16.34214821 11.4375 20.125 C11.18742187 20.77984375 10.93734375 21.4346875 10.6796875 22.109375 C9.0296875 22.439375 7.3796875 22.769375 5.6796875 23.109375 C4.49183891 21.20881726 3.30526481 19.30762838 2.125 17.40234375 C1.18483641 15.91078692 0.22222287 14.43306919 -0.765625 12.97265625 C-4.21555898 7.79775528 -4.21555898 7.79775528 -4.7578125 4.234375 C-4.11888167 1.13099669 -3.18701288 0.15022956 0 0 Z " fill="#79E579" transform="translate(261.3203125,103.890625)"/>
<path d="M0 0 C3.53571429 0.53571429 3.53571429 0.53571429 5 2 C4.64804776 7.53462143 3.10007216 11.19543138 0.1875 15.875 C-0.15603516 16.45507812 -0.49957031 17.03515625 -0.85351562 17.6328125 C-2.35136398 20.03836257 -3.49029014 21.75234436 -6.07421875 23.0078125 C-8 23 -8 23 -11 21 C-10.42483582 16.35444316 -8.40304269 12.77692364 -6.0625 8.8125 C-5.70220703 8.18408203 -5.34191406 7.55566406 -4.97070312 6.90820312 C-3.47912724 4.33983582 -2.10886288 2.10886288 0 0 Z " fill="#7AE478" transform="translate(324,104)"/>
<path d="M0 0 C0.33 0 0.66 0 1 0 C1.27212686 1.60394774 1.54255351 3.20818386 1.8125 4.8125 C1.99683594 5.90046875 2.18117188 6.9884375 2.37109375 8.109375 C2.83057039 10.95185162 3.25917506 13.7899814 3.66015625 16.640625 C4.80955785 24.6488165 6.01390783 32.11215703 9.09375 39.6484375 C10.26534264 42.68851841 10.86213517 45.7427606 11.49609375 48.9296875 C12.01101093 51.04523872 12.73293641 52.89171444 13.625 54.875 C15 58 15 58 15 61 C15.66 61.33 16.32 61.66 17 62 C17 63.32 17 64.64 17 66 C17.66 66.33 18.32 66.66 19 67 C19.64784575 68.31266562 20.2460677 69.65020387 20.8125 71 C22.31299747 74.36744442 22.31299747 74.36744442 25.5625 75.9375 C26.366875 75.958125 27.17125 75.97875 28 76 C29.485 76.495 29.485 76.495 31 77 C28.20129973 78.39935013 26.09501208 78.25265405 23 78 C8.13202606 66.57798877 2.10539345 29.15538849 -0.57421875 11.66015625 C-1.07716543 7.54400059 -0.82227799 4.05620348 0 0 Z " fill="#0B8FE4" transform="translate(11,213)"/>
<path d="M0 0 C0.33 0 0.66 0 1 0 C1.75 3.25 1.75 3.25 2 7 C0.0625 9.4375 0.0625 9.4375 -2 11 C-0.68 11 0.64 11 2 11 C2.495 11.99 2.495 11.99 3 13 C-0.95817939 14.85757271 -4.11639754 15.25686178 -8.47265625 15.265625 C-9.70177734 15.26820313 -10.93089844 15.27078125 -12.19726562 15.2734375 C-13.47279297 15.26570312 -14.74832031 15.25796875 -16.0625 15.25 C-17.9815918 15.26160156 -17.9815918 15.26160156 -19.93945312 15.2734375 C-21.16728516 15.27085937 -22.39511719 15.26828125 -23.66015625 15.265625 C-24.78043213 15.26336914 -25.90070801 15.26111328 -27.05493164 15.25878906 C-29.91637859 15.00734798 -31.57668304 14.48593708 -34 13 C-33.17761841 12.93268677 -33.17761841 12.93268677 -32.33862305 12.86401367 C-15.49839286 12.53665177 -15.49839286 12.53665177 -1 6 C-0.60235737 4.01178687 -0.26224651 2.01055661 0 0 Z " fill="#0F2942" transform="translate(107,220)"/>
<path d="M0 0 C4.25389716 4.33171235 4.79179865 7.89842915 5.25 13.6875 C5.32371826 14.48607422 5.39743652 15.28464844 5.47338867 16.10742188 C6.66866964 29.77888175 6.66866964 29.77888175 6 33 C5.01 33.66 4.02 34.32 3 35 C0.15765195 23.22455807 -1.63893671 12.09269517 0 0 Z " fill="#29B3EB" transform="translate(57,188)"/>
<path d="M0 0 C1.875 1.125 1.875 1.125 3 3 C3.54400387 6.65259739 3.43774093 8.3433886 1.375 11.4375 C-1 13 -1 13 -4.125 12.9375 C-7 12 -7 12 -9 9 C-9.32502803 5.87973093 -9.51151479 3.85252465 -7.875 1.125 C-5.11909116 -0.52854531 -3.14924548 -0.39365568 0 0 Z " fill="#59769E" transform="translate(67,260)"/>
<path d="M0 0 C1.32 0.66 2.64 1.32 4 2 C4 5.63 4 9.26 4 13 C2.35 12.67 0.7 12.34 -1 12 C-1.33 13.65 -1.66 15.3 -2 17 C-2.33 16.01 -2.66 15.02 -3 14 C-3.99 14.33 -4.98 14.66 -6 15 C-6.66 12.03 -7.32 9.06 -8 6 C-5.36 4.02 -2.72 2.04 0 0 Z " fill="#8367E4" transform="translate(143,283)"/>
<path d="M0 0 C11.493279 -0.33082999 21.83371997 -0.06025293 33 3 C33 3.99 33 4.98 33 6 C25.81291198 7.83640668 20.63737397 8.66358517 14 5 C13.195625 4.46375 12.39125 3.9275 11.5625 3.375 C7.85863181 1.38755853 4.14770859 1.26205566 0 1 C0 0.67 0 0.34 0 0 Z " fill="#0B629D" transform="translate(74,163)"/>
<path d="M0 0 C0.33 0 0.66 0 1 0 C2.7481098 8.74054902 2.23562087 17.37491947 0 26 C-0.66 26.33 -1.32 26.66 -2 27 C-2.33 26.34 -2.66 25.68 -3 25 C-3.53625 25.495 -4.0725 25.99 -4.625 26.5 C-7.59358445 28.37489544 -9.55312427 28.23501425 -13 28 C-10.40503742 24.99530649 -9.0785301 24.63141204 -5 23 C-4.34 17.39 -3.68 11.78 -3 6 C-2.34 6 -1.68 6 -1 6 C-1.020625 5.195625 -1.04125 4.39125 -1.0625 3.5625 C-1 1 -1 1 0 0 Z " fill="#23A8E7" transform="translate(107,200)"/>
<path d="M0 0 C3.0625 0.3125 3.0625 0.3125 4.9375 1.375 C6.68223477 4.37982099 6.37085443 6.92060131 6.0625 10.3125 C4.0625 12.3125 4.0625 12.3125 0.625 12.625 C-2.9375 12.3125 -2.9375 12.3125 -4.9375 11.25 C-6.55397822 8.11807344 -5.72415296 5.64064714 -4.9375 2.3125 C-2.9375 0.3125 -2.9375 0.3125 0 0 Z " fill="#5E779E" transform="translate(329.9375,259.6875)"/>
<path d="M0 0 C3.0625 0.3125 3.0625 0.3125 4.9375 1.4375 C6.59104531 4.19340884 6.45615568 6.16325452 6.0625 9.3125 C4.8125 11.1875 4.8125 11.1875 3.0625 12.3125 C1.7425 12.3125 0.4225 12.3125 -0.9375 12.3125 C-1.2675 13.3025 -1.5975 14.2925 -1.9375 15.3125 C-2.5975 15.3125 -3.2575 15.3125 -3.9375 15.3125 C-4.15884176 13.18881556 -4.36420007 11.06345976 -4.5625 8.9375 C-4.67851562 7.75414062 -4.79453125 6.57078125 -4.9140625 5.3515625 C-4.92179687 4.34867188 -4.92953125 3.34578125 -4.9375 2.3125 C-2.9375 0.3125 -2.9375 0.3125 0 0 Z " fill="#172A30" transform="translate(302.9375,151.6875)"/>
<path d="M0 0 C1.875 1.125 1.875 1.125 3 3 C3.39365568 6.14924548 3.52854531 8.11909116 1.875 10.875 C-0.88090884 12.52854531 -2.85075452 12.39365568 -6 12 C-7.875 10.875 -7.875 10.875 -9 9 C-9.39365568 5.85075452 -9.52854531 3.88090884 -7.875 1.125 C-5.11909116 -0.52854531 -3.14924548 -0.39365568 0 0 Z " fill="#6E8CB2" transform="translate(200,38)"/>
<path d="M0 0 C0.33 0 0.66 0 1 0 C1.33 1.65 1.66 3.3 2 5 C2.66 5 3.32 5 4 5 C4.27675737 14.25599658 3.53140195 22.87995448 2 32 C1.67 32 1.34 32 1 32 C0.67 30.35 0.34 28.7 0 27 C-0.33 28.65 -0.66 30.3 -1 32 C-1.33 32 -1.66 32 -2 32 C-2.39389482 21.23354159 -1.18260948 10.68572134 0 0 Z " fill="#34B9EA" transform="translate(107,174)"/>
<path d="M0 0 C0.763125 0.804375 1.52625 1.60875 2.3125 2.4375 C4.79430898 5.16799024 4.79430898 5.16799024 8 6 C8.53629558 10.20203361 8.21194341 11.70421481 5.69921875 15.2109375 C4.71065142 16.28001566 3.70613358 17.33452938 2.6875 18.375 C2.18798828 18.92027344 1.68847656 19.46554688 1.17382812 20.02734375 C-0.14622204 21.42257558 -1.56832163 22.71956985 -3 24 C-3.99 24 -4.98 24 -6 24 C-5.48308594 23.54109375 -4.96617187 23.0821875 -4.43359375 22.609375 C-3.44552734 21.68898437 -3.44552734 21.68898437 -2.4375 20.75 C-1.77621094 20.14671875 -1.11492187 19.5434375 -0.43359375 18.921875 C1.26108373 17.11969832 1.26108373 17.11969832 0.71484375 14.953125 C0.47894531 14.30859375 0.24304688 13.6640625 0 13 C0 12.01 0 11.02 0 10 C-0.33 9.38125 -0.66 8.7625 -1 8.125 C-2.18695221 5.60272655 -2.15304535 3.75481627 -2 1 C-1.34 0.67 -0.68 0.34 0 0 Z " fill="#73E074" transform="translate(335,156)"/>
<path d="M0 0 C3.99500618 1.3697164 6.80009492 3.25722422 10 6 C9.34 8.31 8.68 10.62 8 13 C7.01 12.34 6.02 11.68 5 11 C4.01 12.485 4.01 12.485 3 14 C3 13.34 3 12.68 3 12 C1.35 12.33 -0.3 12.66 -2 13 C-2.05391993 11.20866022 -2.09275571 9.41686101 -2.125 7.625 C-2.14820313 6.62726563 -2.17140625 5.62953125 -2.1953125 4.6015625 C-2 2 -2 2 0 0 Z " fill="#8663E5" transform="translate(249,283)"/>
<path d="M0 0 C0.99 0.66 1.98 1.32 3 2 C1.68 2.33 0.36 2.66 -1 3 C-1 3.66 -1 4.32 -1 5 C-3.60872908 4.5527893 -5.8936383 4.04622094 -8.328125 2.98828125 C-12.00651338 1.62770777 -15.48960937 1.60862983 -19.37890625 1.44140625 C-22.34907707 0.94121355 -23.76612835 -0.02893678 -26 -2 C-17.55255438 -4.81581521 -8.22559322 -2.76725204 0 0 Z " fill="#213334" transform="translate(310,144)"/>
<path d="M0 0 C0.75917725 0.00837891 1.51835449 0.01675781 2.30053711 0.02539062 C8.00008063 0.14674788 13.4265959 0.79598585 18.9375 2.3125 C18.9375 2.6425 18.9375 2.9725 18.9375 3.3125 C18.06609375 3.2403125 17.1946875 3.168125 16.296875 3.09375 C8.48950382 2.48538341 0.767437 2.1834351 -7.0625 2.3125 C-7.7225 4.6225 -8.3825 6.9325 -9.0625 9.3125 C-2.8850987 11.29190763 3.0885484 11.95836777 9.52929688 12.5234375 C16.70670267 13.22249633 16.70670267 13.22249633 19.9375 15.3125 C13.39624781 15.52350814 7.00410404 15.14872035 0.5 14.5 C-0.29325684 14.42990723 -1.08651367 14.35981445 -1.90380859 14.28759766 C-7.58966413 13.67748551 -7.58966413 13.67748551 -9.78149414 11.9855957 C-11.91684422 9.19665839 -11.42356781 6.68246623 -11.0625 3.3125 C-8.57111263 -0.83981229 -4.31374812 -0.10067743 0 0 Z " fill="#8AE98E" transform="translate(214.0625,1.6875)"/>
<path d="M0 0 C0.598125 0.33 1.19625 0.66 1.8125 1 C4.05386471 2.20787988 4.05386471 2.20787988 7 2 C8.32 2 9.64 2 11 2 C11 5.3 11 8.6 11 12 C9.68 12.33 8.36 12.66 7 13 C5.1484375 11.70703125 5.1484375 11.70703125 3.375 9.8125 C2.78460938 9.20019531 2.19421875 8.58789062 1.5859375 7.95703125 C0.03862063 6.04765747 -0.99854163 4.23592933 -2 2 C-1.34 1.34 -0.68 0.68 0 0 Z " fill="#7956E8" transform="translate(142,323)"/>
<path d="M0 0 C0.36237263 1.62318979 0.71465157 3.2486358 1.0625 4.875 C1.25972656 5.77992188 1.45695312 6.68484375 1.66015625 7.6171875 C2 10 2 10 1 12 C-2.22939919 12.35882213 -3.61209763 12.27258004 -6.3125 10.375 C-8.46725216 7.34238585 -8.55462605 5.6446855 -8 2 C-4.77208445 -0.1519437 -3.71599191 -0.20086443 0 0 Z " fill="#61C56E" transform="translate(298,157)"/>
<path d="M0 0 C0.66 0 1.32 0 2 0 C0.4083424 7.59448057 -1.86995845 14.83433466 -4.5 22.125 C-4.79656494 22.96651611 -5.09312988 23.80803223 -5.39868164 24.67504883 C-5.6899292 25.46548584 -5.98117676 26.25592285 -6.28125 27.0703125 C-6.53970703 27.77945801 -6.79816406 28.48860352 -7.06445312 29.21923828 C-8 31 -8 31 -11 33 C-14.25995538 33.5015316 -15.55815654 33.29854288 -18.3125 31.4375 C-20.59751439 28.13692366 -20.43662786 25.9296507 -20 22 C-19.34 21.34 -18.68 20.68 -18 20 C-17.06576355 23.01031744 -16.95550089 23.86650268 -18 27 C-17.34 27.99 -16.68 28.98 -16 30 C-13.11095637 30.30110818 -13.11095637 30.30110818 -10 29 C-7.9796489 25.95483313 -7.08224063 22.46630694 -6 19 C-5.47470851 17.36954979 -4.94860122 15.73936228 -4.421875 14.109375 C-2.91626556 9.41577828 -1.45095306 4.71076094 0 0 Z " fill="#52CA60" transform="translate(377,245)"/>
<path d="M0 0 C2.475 0.99 2.475 0.99 5 2 C5.33 1.34 5.66 0.68 6 0 C6 0.66 6 1.32 6 2 C6.66 2 7.32 2 8 2 C7.5205537 6.21912747 6.83374881 8.79663178 4 12 C2.35 11.67 0.7 11.34 -1 11 C-1.02688151 9.35425434 -1.04634123 7.70838587 -1.0625 6.0625 C-1.07410156 5.14597656 -1.08570313 4.22945313 -1.09765625 3.28515625 C-1 1 -1 1 0 0 Z " fill="#764FE0" transform="translate(242,324)"/>
<path d="M0 0 C0.82113281 -0.02578125 1.64226562 -0.0515625 2.48828125 -0.078125 C4.6875 0.25 4.6875 0.25 6.46875 1.53515625 C8.42161248 4.28293391 7.87184082 6.9933122 7.6875 10.25 C7.0275 10.58 6.3675 10.91 5.6875 11.25 C5.708125 10.115625 5.72875 8.98125 5.75 7.8125 C6.10327477 4.43424326 6.10327477 4.43424326 4.6875 3.25 C2.41847824 3.15019827 0.14621075 3.12032191 -2.125 3.125 C-3.36894531 3.12242188 -4.61289063 3.11984375 -5.89453125 3.1171875 C-8.64114767 3.22391317 -10.71297156 3.5016509 -13.3125 4.25 C-14.66464695 4.41350337 -16.01903333 4.55948003 -17.375 4.6875 C-21.35580898 4.96726591 -21.35580898 4.96726591 -24.3125 7.25 C-27.05240408 7.21856707 -29.59667854 6.69521663 -32.3125 6.25 C-32.3125 5.92 -32.3125 5.59 -32.3125 5.25 C-29.31335281 4.59998322 -26.31328199 3.95488963 -23.3125 3.3125 C-22.47332031 3.13009766 -21.63414062 2.94769531 -20.76953125 2.75976562 C-13.88636194 1.29242333 -7.05794453 0.13508028 0 0 Z " fill="#21CBEA" transform="translate(179.3125,1.75)"/>
<path d="M0 0 C5.67914115 0.97356705 10.06711994 2.86697787 14.8125 6.125 C15.60269531 6.66382813 16.39289063 7.20265625 17.20703125 7.7578125 C17.79871094 8.16773438 18.39039063 8.57765625 19 9 C16.13822943 10.43088528 14.06624227 9.59991697 11 9 C10.67 9.66 10.34 10.32 10 11 C6.37 8.03 2.74 5.06 -1 2 C-0.67 1.34 -0.34 0.68 0 0 Z " fill="#6FE06E" transform="translate(254,175)"/>
<path d="M0 0 C3.60400627 -0.08858959 7.20772545 -0.14091522 10.8125 -0.1875 C12.31973633 -0.22520508 12.31973633 -0.22520508 13.85742188 -0.26367188 C21.5449502 -0.3378281 30.08226241 -0.14982958 36.31176758 4.85864258 C38 7 38 7 38 11 C39.093125 10.484375 40.18625 9.96875 41.3125 9.4375 C45 8 45 8 48 9 C46.75539217 9.67667998 45.50403104 10.34094719 44.25 11 C43.55390625 11.37125 42.8578125 11.7425 42.140625 12.125 C40 13 40 13 36 13 C35.7525 11.3603125 35.7525 11.3603125 35.5 9.6875 C34.3620742 5.738118 34.3620742 5.738118 30.75 4.34375 C24.83768034 2.35903263 18.68219438 2.1827523 12.5 1.8125 C11.29601562 1.73064453 10.09203125 1.64878906 8.8515625 1.56445312 C5.90157979 1.36544635 2.95133557 1.17760306 0 1 C0 0.67 0 0.34 0 0 Z " fill="#0574C0" transform="translate(77,158)"/>
<path d="M0 0 C0.495 0.99 0.495 0.99 1 2 C-5.6959243 4.95408425 -12.23225126 5.20493199 -19.4375 5.25 C-20.25798828 5.270625 -21.07847656 5.29125 -21.92382812 5.3125 C-27.39258122 5.34741622 -31.12381033 4.49387897 -36 2 C-33.28501199 0.64250599 -31.22820178 1.31989234 -28.30908203 1.72900391 C-24.35646192 2.19288721 -20.41298251 2.18432723 -16.4375 2.1875 C-15.22030273 2.20586914 -15.22030273 2.20586914 -13.97851562 2.22460938 C-8.92678065 2.23684118 -4.78728628 1.62574957 0 0 Z " fill="#08416A" transform="translate(101,222)"/>
<path d="M0 0 C2.12320531 1.82669784 3.3915807 3.66048102 5 6 C4.67 6.66 4.34 7.32 4 8 C2.35 6.02 0.7 4.04 -1 2 C-4.29075996 2.37904208 -4.29075996 2.37904208 -7 4 C-7.04092937 6.33297433 -7.04241723 8.66705225 -7 11 C-6.34 11.33 -5.68 11.66 -5 12 C-3.91344156 13.48909175 -2.87731501 15.01544858 -1.875 16.5625 C-1.33617187 17.38878906 -0.79734375 18.21507812 -0.2421875 19.06640625 C0.16773438 19.70449219 0.57765625 20.34257812 1 21 C0.67 21.66 0.34 22.32 0 23 C-9.79865772 10.67785235 -9.79865772 10.67785235 -10.375 5.875 C-10 3 -10 3 -8.9375 1.125 C-5.7616787 -0.71902527 -3.58862985 -0.55685636 0 0 Z " fill="#8B80E1" transform="translate(162,255)"/>
<path d="M0 0 C1.17175781 0.16628906 1.17175781 0.16628906 2.3671875 0.3359375 C2.94726562 0.43132812 3.52734375 0.52671875 4.125 0.625 C3.795 1.285 3.465 1.945 3.125 2.625 C-0.35282583 3.78427528 -3.06303257 3.73813066 -6.73046875 3.72265625 C-7.72292351 3.72053383 -7.72292351 3.72053383 -8.73542786 3.71836853 C-10.84449828 3.71277996 -12.95346177 3.70022965 -15.0625 3.6875 C-16.49413909 3.68248352 -17.92577985 3.67792087 -19.35742188 3.67382812 C-22.86331588 3.6628143 -26.3691475 3.64555755 -29.875 3.625 C-29.875 3.295 -29.875 2.965 -29.875 2.625 C-28.57304688 2.57601562 -27.27109375 2.52703125 -25.9296875 2.4765625 C-24.20310529 2.40149371 -22.47654378 2.32594767 -20.75 2.25 C-19.46609375 2.20359375 -19.46609375 2.20359375 -18.15625 2.15625 C-11.937711 1.86924051 -6.08433822 -0.92186943 0 0 Z " fill="#12273E" transform="translate(115.875,232.375)"/>
<path d="M0 0 C0.33 0 0.66 0 1 0 C1.75 3.25 1.75 3.25 2 7 C0.0625 9.4375 0.0625 9.4375 -2 11 C-0.68 11 0.64 11 2 11 C2.33 11.66 2.66 12.32 3 13 C-3.22895086 14.13253652 -7.91748904 13.70366626 -14 12 C-11.32327137 10.57761281 -8.78327165 9.636326 -5.875 8.8125 C-3.76794623 8.13782093 -3.76794623 8.13782093 -2 7 C-0.38864654 3.45136841 -0.38864654 3.45136841 0 0 Z " fill="#0D4169" transform="translate(107,220)"/>
<path d="M0 0 C0.92232422 0.00451172 1.84464844 0.00902344 2.79492188 0.01367188 C5.05085048 0.02536062 7.30663967 0.04174545 9.5625 0.0625 C9.8925 0.7225 10.2225 1.3825 10.5625 2.0625 C1.39890796 4.16179563 -8.17903499 3.08311819 -17.4375 2.0625 C-17.4375 1.7325 -17.4375 1.4025 -17.4375 1.0625 C-11.58861957 0.04355924 -5.92830831 -0.05548453 0 0 Z " fill="#34B7E1" transform="translate(83.4375,172.9375)"/>
<path d="M0 0 C-1.03898437 0.51949219 -2.07796875 1.03898437 -3.1484375 1.57421875 C-3.81979736 1.9101001 -4.49115723 2.24598145 -5.18286133 2.59204102 C-6.64819466 3.32429969 -8.11418234 4.05525037 -9.58081055 4.78491211 C-12.79866261 6.3876013 -16.00389803 8.00205663 -19.18359375 9.6796875 C-20.05113281 10.13601562 -20.91867188 10.59234375 -21.8125 11.0625 C-22.56144531 11.46597656 -23.31039062 11.86945312 -24.08203125 12.28515625 C-26 13 -26 13 -29 12 C-5.30157813 -1.94228323 -5.30157813 -1.94228323 0 0 Z " fill="#1BC7EA" transform="translate(128,16)"/>
<path d="M0 0 C2.625 0.375 2.625 0.375 5 1 C5.66 2.98 6.32 4.96 7 7 C5.68 6.67 4.36 6.34 3 6 C2.67 6.99 2.34 7.98 2 9 C0.68 8.34 -0.64 7.68 -2 7 C-2.125 4.625 -2.125 4.625 -2 2 C-1.34 1.34 -0.68 0.68 0 0 Z " fill="#80E580" transform="translate(259,104)"/>
<path d="M0 0 C0.93134766 0.00322266 1.86269531 0.00644531 2.82226562 0.00976562 C4.26182617 0.02233398 4.26182617 0.02233398 5.73046875 0.03515625 C6.70951172 0.03966797 7.68855469 0.04417969 8.69726562 0.04882812 C11.10422986 0.06056941 13.51106732 0.07699206 15.91796875 0.09765625 C15.58796875 0.75765625 15.25796875 1.41765625 14.91796875 2.09765625 C6.59804842 3.70325491 -1.69944085 2.7662064 -10.08203125 2.09765625 C-10.08203125 1.76765625 -10.08203125 1.43765625 -10.08203125 1.09765625 C-6.65629188 0.32237146 -3.5096388 -0.02153153 0 0 Z " fill="#293C3D" transform="translate(217.08203125,-0.09765625)"/>
<path d="M0 0 C3.3 0 6.6 0 10 0 C10 0.66 10 1.32 10 2 C10.66 2.33 11.32 2.66 12 3 C11.67 3.99 11.34 4.98 11 6 C7.04 6 3.08 6 -1 6 C0.65 4.68 2.3 3.36 4 2 C2.68 1.34 1.36 0.68 0 0 Z " fill="#8AF185" transform="translate(288,135)"/>
<path d="M0 0 C0.33 0 0.66 0 1 0 C1 2.64 1 5.28 1 8 C2.32 8.66 3.64 9.32 5 10 C4.34 10 3.68 10 3 10 C3 10.66 3 11.32 3 12 C0.625 12.1875 0.625 12.1875 -2 12 C-4 9 -4 9 -3.8125 7.125 C-2.8201373 4.52958985 -1.53970736 2.30956104 0 0 Z " fill="#1DA4E0" transform="translate(63,216)"/>
<path d="M0 0 C1.2375 0.350625 2.475 0.70125 3.75 1.0625 C4.8225 1.371875 5.895 1.68125 7 2 C7 2.33 7 2.66 7 3 C6.09636719 3.13277344 5.19273438 3.26554688 4.26171875 3.40234375 C2.49248047 3.66724609 2.49248047 3.66724609 0.6875 3.9375 C-1.07013672 4.19853516 -1.07013672 4.19853516 -2.86328125 4.46484375 C-6.01641403 4.92093031 -6.01641403 4.92093031 -9 6 C-9 4 -9 4 -8 3 C-9.32 2.67 -10.64 2.34 -12 2 C-10.75579353 1.4654744 -9.50429064 0.94791389 -8.25 0.4375 C-7.55390625 0.14746094 -6.8578125 -0.14257812 -6.140625 -0.44140625 C-3.63718728 -1.09467558 -2.42904023 -0.80968008 0 0 Z " fill="#39B9DF" transform="translate(67,161)"/>
<path d="M0 0 C0.99 0.33 1.98 0.66 3 1 C0.61426621 2.89213369 -1.07175348 4.02391783 -4 5 C-4.45375 5.66 -4.9075 6.32 -5.375 7 C-7 9 -7 9 -9.5625 9.5 C-10.366875 9.665 -11.17125 9.83 -12 10 C-13.36020151 11.96758273 -13.36020151 11.96758273 -14 14 C-14.66 14 -15.32 14 -16 14 C-14.4493407 9.43357571 -10.8397192 7.34186536 -7.0625 4.6875 C-6.11213867 3.98657227 -6.11213867 3.98657227 -5.14257812 3.27148438 C-3.48747035 2.09324256 -1.74724448 1.03671224 0 0 Z " fill="#18C5EA" transform="translate(96,30)"/>
<path d="M0 0 C1.9375 1.125 1.9375 1.125 3 3 C3.1875 6.1875 3.1875 6.1875 3 9 C2.01 9.495 2.01 9.495 1 10 C0.67 7.69 0.34 5.38 0 3 C-2.14054182 1.94949548 -2.14054182 1.94949548 -5 2 C-7.59005725 3.73919133 -9.79124879 5.80397934 -12 8 C-9.57070605 1.08585568 -7.61789039 -0.81620254 0 0 Z " fill="#8C80E3" transform="translate(239,255)"/>
<path d="M0 0 C0.33 0 0.66 0 1 0 C1.48229332 2.49943204 1.96089426 4.99948243 2.4375 7.5 C2.57220703 8.19609375 2.70691406 8.8921875 2.84570312 9.609375 C3.75371019 14.39302198 4.43896713 19.1631341 5 24 C4.34 24 3.68 24 3 24 C1.11630374 15.93485386 -0.14563217 8.30103368 0 0 Z " fill="#0E8DD9" transform="translate(23,217)"/>
<path d="M0 0 C0 0.66 0 1.32 0 2 C-0.99 2.495 -0.99 2.495 -2 3 C-2.65772428 6.02934491 -2.65772428 6.02934491 -3 9 C-4.875 8.75 -4.875 8.75 -7 8 C-8.3125 6.0625 -8.3125 6.0625 -9 4 C-8 2 -8 2 -5.0625 0.875 C-2 0 -2 0 0 0 Z " fill="#62CF62" transform="translate(311,185)"/>
<path d="M0 0 C3.63 0 7.26 0 11 0 C11 0.99 11 1.98 11 3 C11.66 3.33 12.32 3.66 13 4 C4.80743982 4.63019694 4.80743982 4.63019694 1.4375 2 C0.7259375 1.01 0.7259375 1.01 0 0 Z " fill="#026BB3" transform="translate(85,165)"/>
<path d="M0 0 C-0.9375 1.9375 -0.9375 1.9375 -3 4 C-5.9858081 4.66174825 -8.94861869 4.87205948 -12 5 C-9.56521739 1.22608696 -9.56521739 1.22608696 -7.125 0.25 C-4.73068929 -0.03168361 -2.40866079 -0.06690724 0 0 Z " fill="#75EB71" transform="translate(293,136)"/>
<path d="M0 0 C0 0.66 0 1.32 0 2 C-1.2065625 2.4640625 -1.2065625 2.4640625 -2.4375 2.9375 C-4.89080405 3.76335345 -4.89080405 3.76335345 -6 5 C-4.35 5.33 -2.7 5.66 -1 6 C-4 8 -4 8 -6.6875 7.625 C-7.450625 7.41875 -8.21375 7.2125 -9 7 C-8.34 5.68 -7.68 4.36 -7 3 C-7.99 2.34 -8.98 1.68 -10 1 C-6.61981469 -0.04005702 -3.5219721 -0.08004482 0 0 Z " fill="#73D272" transform="translate(288,135)"/>
<path d="M0 0 C1 3 1 3 0 6 C-0.66 6 -1.32 6 -2 6 C-1.67 6.99 -1.34 7.98 -1 9 C-1.61875 9.061875 -2.2375 9.12375 -2.875 9.1875 C-5.27761141 9.828919 -5.27761141 9.828919 -6.25 12.5625 C-6.4975 13.366875 -6.745 14.17125 -7 15 C-7.66 14.67 -8.32 14.34 -9 14 C-7.68918099 11.85312331 -6.37643389 9.70746901 -5.0625 7.5625 C-4.68931641 6.95083984 -4.31613281 6.33917969 -3.93164062 5.70898438 C-1.11328125 1.11328125 -1.11328125 1.11328125 0 0 Z " fill="#05B9E6" transform="translate(98,82)"/>
<path d="M0 0 C0.66 0.66 1.32 1.32 2 2 C-1.63 5.63 -5.26 9.26 -9 13 C-9.33 12.01 -9.66 11.02 -10 10 C-6.7 6.7 -3.4 3.4 0 0 Z " fill="#173440" transform="translate(79,60)"/>
<path d="M0 0 C0 0.99 0 1.98 0 3 C-6.4 4.23076923 -6.4 4.23076923 -9.4375 3.0625 C-9.953125 2.711875 -10.46875 2.36125 -11 2 C-11 1.34 -11 0.68 -11 0 C-6.98195309 -0.84098656 -3.98196457 -1.05404945 0 0 Z " fill="#2CB7E4" transform="translate(108,170)"/>
<path d="M0 0 C0.99 0.33 1.98 0.66 3 1 C2.71125 1.53625 2.4225 2.0725 2.125 2.625 C0.88653423 5.08024809 0.88653423 5.08024809 0.0625 8.1875 C-0.288125 9.115625 -0.63875 10.04375 -1 11 C-1.99 11.33 -2.98 11.66 -4 12 C-3.45660208 7.43545749 -2.20536179 4.0271824 0 0 Z " fill="#06BBE6" transform="translate(104,70)"/>
<path d="M0 0 C1.06863281 0.19464844 2.13726562 0.38929688 3.23828125 0.58984375 C4.45064453 0.82380859 4.45064453 0.82380859 5.6875 1.0625 C5.6875 1.3925 5.6875 1.7225 5.6875 2.0625 C0.4075 2.0625 -4.8725 2.0625 -10.3125 2.0625 C-10.6425 1.4025 -10.9725 0.7425 -11.3125 0.0625 C-7.22971966 -1.02068662 -4.13371165 -0.77223185 0 0 Z " fill="#0F314F" transform="translate(99.3125,232.9375)"/>
<path d="M0 0 C0.33 0 0.66 0 1 0 C1.95261487 4.76307437 2.08333357 9.1666528 2 14 C1.34 12.68 0.68 11.36 0 10 C-0.99 10 -1.98 10 -3 10 C-3 8.68 -3 7.36 -3 6 C-2.34 6 -1.68 6 -1 6 C-1.0309375 4.7934375 -1.0309375 4.7934375 -1.0625 3.5625 C-1 1 -1 1 0 0 Z " fill="#28A7DD" transform="translate(107,200)"/>
<path d="M0 0 C0.33 0.99 0.66 1.98 1 3 C-0.23889596 4.48847937 -1.4915672 5.96550105 -2.75 7.4375 C-3.79414063 8.67306641 -3.79414063 8.67306641 -4.859375 9.93359375 C-7.01343015 12.01296451 -8.08310781 12.63867326 -11 13 C-10.62488281 12.56429688 -10.24976563 12.12859375 -9.86328125 11.6796875 C-6.54140223 7.81392401 -3.25357073 3.92342352 0 0 Z " fill="#857BE4" transform="translate(226,263)"/>
<path d="M0 0 C5.94 1.485 5.94 1.485 12 3 C11.34 3.66 10.68 4.32 10 5 C7.3984375 4.9765625 7.3984375 4.9765625 4.375 4.625 C3.37210937 4.51414063 2.36921875 4.40328125 1.3359375 4.2890625 C0.56507812 4.19367188 -0.20578125 4.09828125 -1 4 C-0.67 2.68 -0.34 1.36 0 0 Z " fill="#122B44" transform="translate(109,221)"/>
<path d="M0 0 C0.66 0 1.32 0 2 0 C0.52278578 3.45201639 -1.43794001 5.64961936 -4.125 8.25 C-4.84945312 8.95640625 -5.57390625 9.6628125 -6.3203125 10.390625 C-6.87460938 10.92171875 -7.42890625 11.4528125 -8 12 C-8.66 11.67 -9.32 11.34 -10 11 C-8.38150935 9.16053461 -6.75581169 7.32848583 -5.125 5.5 C-4.66480469 4.97535156 -4.20460937 4.45070312 -3.73046875 3.91015625 C-2.52827924 2.56858245 -1.26754054 1.28000815 0 0 Z " fill="#7DDC80" transform="translate(255,149)"/>
<path d="M0 0 C1.48494847 2.35971811 2.07311076 3.52196809 1.64453125 6.32421875 C1.36996094 7.10410156 1.09539062 7.88398438 0.8125 8.6875 C0.55082031 9.47511719 0.28914063 10.26273437 0.01953125 11.07421875 C-1 13 -1 13 -4 14 C-3.79503906 13.32453125 -3.59007812 12.6490625 -3.37890625 11.953125 C-3.10949219 11.06109375 -2.84007812 10.1690625 -2.5625 9.25 C-2.16224609 7.92742187 -2.16224609 7.92742187 -1.75390625 6.578125 C-1.11531506 4.39434165 -0.53224167 2.21164502 0 0 Z " fill="#54C662" transform="translate(363,250)"/>
<path d="M0 0 C0.33 0 0.66 0 1 0 C1.18451025 10.55808656 1.18451025 10.55808656 0 15 C-0.66 14.01 -1.32 13.02 -2 12 C-2.99 12.495 -2.99 12.495 -4 13 C-3.67 11.35 -3.34 9.7 -3 8 C-2.01 8 -1.02 8 0 8 C0 5.36 0 2.72 0 0 Z " fill="#2FB3F0" transform="translate(107,210)"/>
<path d="M0 0 C0 0.66 0 1.32 0 2 C-8.261959 5.62870159 -8.261959 5.62870159 -13 4 C-9.06512611 1.79647062 -4.5498921 0 0 0 Z " fill="#1F3541" transform="translate(155,20)"/>
<path d="M0 0 C1.60517097 0.08733576 3.20921662 0.19552224 4.8125 0.3125 C6.15248047 0.39951172 6.15248047 0.39951172 7.51953125 0.48828125 C10.30604 1.06313581 11.24135754 1.8206856 13 4 C11.39482903 3.91266424 9.79078338 3.80447776 8.1875 3.6875 C6.84751953 3.60048828 6.84751953 3.60048828 5.48046875 3.51171875 C2.69396 2.93686419 1.75864246 2.1793144 0 0 Z " fill="#0E4B7B" transform="translate(65,223)"/>
<path d="M0 0 C3.375 -0.125 3.375 -0.125 7 0 C7.66 0.66 8.32 1.32 9 2 C5.86501708 3.85776765 3.62528568 4.20140476 0 4 C0 2.68 0 1.36 0 0 Z " fill="#42C8F3" transform="translate(99,161)"/>
<path d="M0 0 C0 0.99 0 1.98 0 3 C-0.61875 3.2475 -1.2375 3.495 -1.875 3.75 C-4.14291141 4.81460222 -4.14291141 4.81460222 -4.9375 7 C-6.39836667 9.74986668 -8.11305462 10.08833304 -11 11 C-7.6189962 6.86378916 -4.33409466 3.18683431 0 0 Z " fill="#23C5E8" transform="translate(77,44)"/>
<path d="M0 0 C1.32 0.66 2.64 1.32 4 2 C3.67 3.98 3.34 5.96 3 8 C2.67 7.01 2.34 6.02 2 5 C1.01 5.33 0.02 5.66 -1 6 C-0.67 4.02 -0.34 2.04 0 0 Z " fill="#8F72F3" transform="translate(138,292)"/>
<path d="M0 0 C3.3 0 6.6 0 10 0 C10.33 0.99 10.66 1.98 11 3 C8.69 3.33 6.38 3.66 4 4 C3.67 3.34 3.34 2.68 3 2 C2.01 1.34 1.02 0.68 0 0 Z " fill="#3EC5E9" transform="translate(90,171)"/>
<path d="M0 0 C1.8125 0.1875 1.8125 0.1875 4 1 C5.75 3.5625 5.75 3.5625 7 6 C6.34 6.66 5.68 7.32 5 8 C4.4121875 7.0409375 4.4121875 7.0409375 3.8125 6.0625 C1.61527704 3.56221181 0.24208567 3.35049575 -3 3 C-2.01 2.67 -1.02 2.34 0 2 C0 1.34 0 0.68 0 0 Z " fill="#79CE79" transform="translate(304,149)"/>
<path d="M0 0 C2.31 0.33 4.62 0.66 7 1 C1.85714286 5.42857143 1.85714286 5.42857143 -2 6 C-1.34 4.02 -0.68 2.04 0 0 Z " fill="#111A24" transform="translate(281,143)"/>
<path d="M0 0 C0.99 0.33 1.98 0.66 3 1 C3.33 4.3 3.66 7.6 4 11 C3.01 11.495 3.01 11.495 2 12 C1.34 8.04 0.68 4.08 0 0 Z " fill="#623DCF" transform="translate(203,348)"/>
<path d="M0 0 C3.3 0 6.6 0 10 0 C9.67 0.99 9.34 1.98 9 3 C6.36 3 3.72 3 1 3 C0.67 2.01 0.34 1.02 0 0 Z " fill="#0C1424" transform="translate(288,185)"/>
<path d="M0 0 C0.66 0.66 1.32 1.32 2 2 C1.625 4.625 1.625 4.625 1 7 C-0.32 6.67 -1.64 6.34 -3 6 C-3 3 -3 3 -1.5 1.3125 C-0.7575 0.6628125 -0.7575 0.6628125 0 0 Z " fill="#6DD76E" transform="translate(271,119)"/>
<path d="M0 0 C-1 1.5625 -1 1.5625 -3 3 C-5.76614782 2.96726452 -8.26030547 2.49404328 -11 2 C-11 1.67 -11 1.34 -11 1 C-7.26562152 0.12132271 -3.83225427 -0.08912219 0 0 Z " fill="#18C8EB" transform="translate(158,6)"/>
<path d="M0 0 C0.33 0 0.66 0 1 0 C1.33 3.3 1.66 6.6 2 10 C1.01 10.495 1.01 10.495 0 11 C-0.84098656 6.98195309 -1.05404945 3.98196457 0 0 Z " fill="#643ED1" transform="translate(177,340)"/>
<path d="M0 0 C0.66 0.66 1.32 1.32 2 2 C1.69972883 3.67293936 1.36442233 5.33985384 1 7 C1.33 7.99 1.66 8.98 2 10 C1.01 10.495 1.01 10.495 0 11 C-1.49297212 8.01405576 -1.11755228 5.29146376 -1 2 C-0.67 1.34 -0.34 0.68 0 0 Z " fill="#51C963" transform="translate(358,265)"/>
<path d="M0 0 C-2.35968744 2.09749995 -3.54616994 2.96905704 -6.75 3.1875 C-7.86375 3.0946875 -7.86375 3.0946875 -9 3 C-9 2.34 -9 1.68 -9 1 C-3.375 -1.125 -3.375 -1.125 0 0 Z " fill="#653DD8" transform="translate(188,362)"/>
<path d="M0 0 C1.5625 1.25 1.5625 1.25 3 3 C3 5.0625 3 5.0625 2 7 C-0.5625 8.25 -0.5625 8.25 -3 9 C-2.34 8.01 -1.68 7.02 -1 6 C-0.60986284 4.0103005 -0.26797351 2.00980131 0 0 Z " fill="#1D4A5B" transform="translate(187,6)"/>
<path d="M0 0 C0.99 0.33 1.98 0.66 3 1 C3 2.65 3 4.3 3 6 C2.01 6.495 2.01 6.495 1 7 C0.67 4.69 0.34 2.38 0 0 Z " fill="#7851ED" transform="translate(137,311)"/>
<path d="M0 0 C1.32 0 2.64 0 4 0 C4 0.66 4 1.32 4 2 C5.32 2.33 6.64 2.66 8 3 C5.36 3.33 2.72 3.66 0 4 C0 2.68 0 1.36 0 0 Z " fill="#33BCE6" transform="translate(62,170)"/>
</svg>
